<svg id="图层_1" data-name="图层 1" xmlns="http://www.w3.org/2000/svg" viewBox="0 0 500 300"><defs><style>.cls-1{fill:#323333;}</style></defs><title>bian(8)</title><polygon class="cls-1" points="153.92 138.23 174.83 117.33 195.74 138.24 207.9 126.08 174.83 93 141.76 126.07 153.92 138.23"/><rect class="cls-1" x="124.57" y="138.22" width="17.2" height="17.2" transform="translate(-64.81 137.17) rotate(-45)"/><polygon class="cls-1" points="153.92 155.41 174.83 176.31 195.74 155.4 207.91 167.55 207.9 167.56 174.83 200.64 141.76 167.57 141.74 167.55 153.92 155.41"/><rect class="cls-1" x="207.88" y="138.22" width="17.2" height="17.2" transform="translate(-40.41 196.08) rotate(-45)"/><polygon class="cls-1" points="187.16 146.81 187.17 146.81 174.83 134.47 165.71 143.59 165.7 143.59 164.66 144.64 162.5 146.8 162.5 146.8 162.48 146.82 162.5 146.84 174.83 159.17 187.17 146.82 187.17 146.82 187.16 146.81"/><path class="cls-1" d="M299,174l-2-7.67,7,.32q2.58,0,2.58-2.67V140.24H287.89v43.69h-7.75V140.24H261.32v33.92h-7.75V132.81h26.57V121.9q-13.57,1-29.32,1l-1.67-7.19c25.68,0,46.84-2,64.83-6.14l3.39,6.7a192,192,0,0,1-29.47,5v11.55h26.49v32.87c0,5.55-2.72,8.32-7.83,8.32H299Z"/><path class="cls-1" d="M328.81,138.94h22.4c2.64-4.9,3.9-6.73,5.63-10.18h8.83q-1.86,3.39-5.41,10.18H399.1v7.43H385q-4.93,12-10.42,19,11.06,4.69,24.55,12l-5.25,6.78q-12.68-7.35-24.87-13-13.73,12-35.78,12.52l-4.44-7.11q19.79-.08,32.22-8.88-11.55-4.85-21.73-8.08,3.88-6.3,7.83-13.16H328.81v-7.43Zm70.29-22.37v18.25h-8.31V123.94H337v10.8h-8.19V116.57h32a56.42,56.42,0,0,0-3.47-6.54l8.64,0c1.13,2.42,2.26,3.66,3.39,6.57H399.1Zm-43,29.8q-3.72,6.3-6.06,10.1,9.21,2.75,16.88,5.73a54.74,54.74,0,0,0,9.61-15.83Z"/></svg>