<svg id="图层_1" data-name="图层 1" xmlns="http://www.w3.org/2000/svg" viewBox="0 0 500 300"><defs><style>.cls-1{fill:#323333;}</style></defs><title>bijiu(8)</title><path class="cls-1" d="M131.2,97.3A52.7,52.7,0,1,0,183.9,150,52.77,52.77,0,0,0,131.2,97.3Zm0,97.4A44.7,44.7,0,1,1,175.9,150,44.75,44.75,0,0,1,131.2,194.7Z"/><path class="cls-1" d="M143.5,118.1h-8v9.5h-7.2v-9.5h-8v9.5h-8.9v28.5h32v9.6h-28v8h4.9v10.8h8V173.7h7.2v10.8h8V173.7h7.9V127.6h-7.9v-9.5Zm-24.1,17.5h24v12.5h-24Z"/><polygon class="cls-1" points="222.2 154.7 222.2 124.8 208.5 124.8 208.5 151.7 198.3 151.7 198.3 121 222.2 121 222.2 112.8 196.4 112.8 196.4 109.8 257.5 109.8 256.5 112.8 232.3 112.8 232.3 121 256.2 121 256.2 151.7 242.7 151.7 241.6 148.4 246 148.4 246 124.8 232.3 124.8 232.3 154.7 222.2 154.7"/><path class="cls-1" d="M384,154.5l-1.1-2.4h2.9v-4h-8.2l-2.9-7.2-2.9,7.2h-6.1l5.9-15.1-5.9-15.1h6.1l2.9,7.2,2.9-7.2h8.2v-5.5H345.2v5.5h8.2l2.9,7.2,2.9-7.2h6.2l-6,15.1,6,15.1h-6.2l-2.9-7.2-2.9,7.2h-8.2v6.4H335V109.6h60.9v44.9ZM377.8,133l5.1,13,2.9-.6V120.6l-2.9-.6Zm-32.6-12.3v24.8l2.9.5,5.1-13-5.1-12.9Z"/><polygon class="cls-1" points="310.1 153.5 296.5 140.1 282.9 153.5 267.7 153.5 303.2 117.7 285.9 117.7 276.9 126.8 263.3 126.8 281 108.9 294.5 108.9 287.6 115.9 320.7 115.9 303.7 132.8 324.8 153.5 310.1 153.5"/><path class="cls-1" d="M224.3,167.8v6.5a4.77,4.77,0,0,1-1.7,3.6h0a1.52,1.52,0,0,1,1.7,1.4v11.3H199.9V167.8Zm-7,1.8H206.9v8.3h10.4Zm0,10.1H206.9v9h10.5Z"/><path class="cls-1" d="M249.1,169.6h-7.9v20.9h-7V169.6h-7.9v-1.8h22.8Z"/><path class="cls-1" d="M258.1,188.7h16.1v1.8H251.1V167.9h23.1v1.8H258.1Z"/><path class="cls-1" d="M275.6,190.5v-1.8h16.2v-8.1H275.6V167.9h23.1v22.6Zm7-20.8v9.1h9.1v-9.1Z"/><path class="cls-1" d="M318.4,188.7h16.1v1.8H311.4V167.9h23.1v1.8H318.4Z"/><path class="cls-1" d="M361.2,190.4H336.4V167.7h24.8Zm-17.8-1.8h10.8V169.5H343.5Z"/><path class="cls-1" d="M377.1,167.8l2.9,12.5,3-12.5h8.7l4.5,22.6h-6.4l-3-14.8L383,190h-5.9l-3.8-14.4-2.9,14.8H364l4.5-22.6Z"/><rect class="cls-1" x="302.5" y="186.3" width="5.1" height="4.9"/></svg>