<svg id="图层_1" data-name="图层 1" xmlns="http://www.w3.org/2000/svg" viewBox="0 0 500 300"><defs><style>.cls-1{fill:#323333;}</style></defs><title>bijiaosuo(8)</title><path class="cls-1" d="M88.54,162.13l-.34-.91q0-13,0-26.06h.19c0,.33,0,.66,0,1q0,11.65,0,23.31C88.42,160.35,88.5,161.24,88.54,162.13Z"/><path class="cls-1" d="M133.5,206.69q0-.08,0-.16l.27,0H159l1.43,0a.9.9,0,0,0,0,.16Z"/><path class="cls-1" d="M88.4,135.17h-.19v-.72l.34-.9Z"/><path class="cls-1" d="M161,206.52h-.53l-1.43,0H133.76l-.27,0a34.7,34.7,0,0,1-17.53-7,22.64,22.64,0,0,1-2.22-2c-5.22-5.2-10.4-10.44-15.64-15.61a31.52,31.52,0,0,1-6.46-9.21,34.29,34.29,0,0,1-3.1-10.63c0-.89-.12-1.78-.12-2.68q0-11.65,0-23.31c0-.33,0-.66,0-1l.15-1.62a36,36,0,0,1,3.05-10.28,30.63,30.63,0,0,1,6.13-8.9c5-5,10.06-9.93,15-15a33.48,33.48,0,0,1,14.21-8.59,29.69,29.69,0,0,1,9.18-1.42c7.24,0,14.49,0,21.73,0,1.4,0,2.81.1,4.21.16l.93.16.3,0,.6.14.3,0,.6.15a.13.13,0,0,0,.15,0l.57.15a.14.14,0,0,0,.15,0l.57.16a.1.1,0,0,0,.13,0l.41.14a.15.15,0,0,0,.15,0l.57.18h0L168,91h0l.55.19h0l.36.15a.15.15,0,0,0,.15,0l.39.16a.09.09,0,0,0,.12,0l.42.17h0l.37.16a.08.08,0,0,0,.11,0l.43.18h0l.38.17h0l.37.17h0l.35.17a.08.08,0,0,0,.11,0l.25.14a.09.09,0,0,0,.11,0l.25.14a.09.09,0,0,0,.11,0l.25.14a.09.09,0,0,0,.11,0l.25.14a.08.08,0,0,0,.1,0l.26.15h0l.35.19h0l.36.2h0l.36.2,0,0,.21.15h0l.34.2h0l.36.21,0,0,.21.16h0l.35.21,0,0,.21.16h0l.34.21,0,0,.21.17h0l.35.22,0,0,.21.18h0l.2.16h0l.33.22,0,0,.21.18h0l.2.17h0l.19.16h0l.32.23,0,0,.2.19,0,0,.2.19h0l.19.18h0l.19.18h0l.19.17h0L180,98h0l.17.17h0l.17.17h0l.17.17h0l.17.17h0l.17.17h0l.17.17h0l.17.17h0l.17.17h0l.17.17h0l.17.17h0l.17.17h0l.17.17h0l.17.17h0l.17.17h0l.17.17h0l.17.17h0l.17.17h0l.17.17h0l.17.17h0l.17.17h0l.17.17h0l.17.17h0l.17.17h0l.17.17h0l.17.17h0l.17.17h0l.17.17h0l.17.17h0l.17.17h0l.17.17h0l.17.17h0l.17.17h0l.17.17h0l.17.17h0l.17.17h0l.17.17h0l.17.17h0l.17.17h0l.17.17h0l.17.17h0l.17.17h0l.17.17h0l.17.17h0l.17.17h0l.17.17h0l.17.17h0l.17.17h0l.17.17h0l.17.17h0l.17.17h0l.17.17h0l.17.17h0l.17.17h0l.17.17h0l.17.17h0l.17.17h0l.17.17h0l.17.17h0l.17.17h0l.17.17h0l.17.17h0l.17.17h0l.17.17h0l.17.17h0l.17.17h0l.17.17h0l.17.17h0l.17.17h0l.17.17h0l.17.17h0l.17.17h0l.17.17h0l.17.17h0l.17.17h0l.17.17h0l.17.17h0l.17.17h0l.17.17h0l.17.17h0l.17.17h0l.17.17h0l.17.17h0l.17.17h0l.17.17h0l.17.17h0l.17.17h0l.17.17h0l.17.17h0l.17.17h0l.17.17h0l.17.17h0l.17.17h0l.17.17h0l.17.17h0l.17.17h0l.17.18h0l.17.18h0l.18.19h0l.18.2h0l.19.2,0,0,.19.2,0,0,.23.32v0l.16.18h0l.17.2h0l.18.21,0,0,.22.33h0l.16.2h0l.18.21,0,0,.22.34h0l.17.21,0,0,.21.34h0l.16.21,0,0,.21.35h0l.16.21,0,0,.21.36h0l.2.34h0l.15.21,0,0,.2.36h0l.19.36h0l.19.35h0l.15.25a.09.09,0,0,0,0,.11l.14.24a.11.11,0,0,0,0,.12l.14.23a.12.12,0,0,0,0,.13l.13.23a.11.11,0,0,0,0,.13l.14.24a.09.09,0,0,0,0,.11l.17.35h0l.17.36h0l.17.38h0l.18.42a.1.1,0,0,0,0,.12l.16.36h0l.17.42a.1.1,0,0,0,0,.12l.16.37h0l.19.54h0l.19.54h0l.18.54h0l.18.55h0l.17.59a.12.12,0,0,0,0,.13l.16.56a.16.16,0,0,0,0,.16l.15.56a.16.16,0,0,0,0,.16l.15.58a.11.11,0,0,0,0,.13l.16.77,0,.31.14.77,0,.3.15,1.32,0,1c0,.21,0,.42,0,.63q0,11.9,0,23.81c0,.18,0,.36,0,.54l0,.86-.15,1.3,0,.33-.16.93a.16.16,0,0,0,0,.16l-.15.74a.18.18,0,0,0,0,.17l-.17.73a.11.11,0,0,0,0,.13l-.16.59a.11.11,0,0,0,0,.13l-.17.59h0l-.16.54a.11.11,0,0,0,0,.13l-.14.4a.15.15,0,0,0,0,.15l-.14.39a.15.15,0,0,0,0,.15l-.15.39a.14.14,0,0,0,0,.14l-.15.4a.1.1,0,0,0,0,.12l-.17.42h0l-.15.36a.12.12,0,0,0,0,.13l-.17.41h0l-.16.36a.08.08,0,0,0,0,.11l-.13.25a.14.14,0,0,0,0,.14l-.18.4h0l-.18.37h0l-.18.37h0l-.18.36h0L202,174h0l-.19.36h0l-.19.36h0l-.2.37v0l-.14.2a.1.1,0,0,0,0,.11l-.16.25h0l-.2.35h0l-.21.36,0,0-.16.21h0l-.21.35h0l-.16.21h0l-.21.34h0l-.16.21h0l-.21.34,0,0-.17.21h0l-.22.34,0,0-.18.21h0l-.17.2h0l-.15.18,0,0-.22.32,0,0-.18.2h0l-.17.2h0l-.16.18h0l-.41.5,0,0-.19.2,0,0-.2.2,0,0-.19.2h0l-.19.2h0l-.19.19h0l-.19.19h0l-.19.19h0l-.19.19h0l-.19.19h0l-.19.19h0l-.19.19h0l-.19.19h0l-.19.19h0l-.19.19h0l-.19.19h0l-.19.19h0l-.19.19h0l-.19.19h0l-.19.19h0L194,184h0l-.19.19h0l-.19.19h0l-.19.19h0l-.19.19h0l-.19.19h0l-.19.19h0l-.19.19h0l-.19.19h0l-.19.19h0l-.19.19h0l-.19.19h0l-.19.19h0l-.19.19h0l-.19.19h0l-.19.19h0l-.19.19h0l-.19.19h0l-.19.19h0l-.19.19h0l-.19.19h0l-.19.19h0l-.19.19h0l-.19.19h0l-.19.19h0l-.19.19h0l-.19.19h0l-.19.19h0l-.19.19h0l-.19.19h0l-.19.19h0l-.19.19h0l-.19.19h0l-.19.19h0l-.19.19h0l-.19.19h0l-.19.19h0l-.19.19h0l-.19.19h0L187,191h0l-.19.19h0l-.19.19h0l-.19.19h0l-.19.19h0l-.19.19h0l-.19.19h0l-.19.19h0l-.19.19h0l-.19.19h0l-.19.19h0l-.19.19h0l-.19.19h0l-.19.19h0l-.19.19h0l-.19.19h0l-.19.19h0l-.19.19h0l-.19.19h0l-.19.19h0l-.19.19h0l-.19.19h0l-.19.19h0l-.19.19h0l-.19.19h0l-.19.19h0l-.19.19h0l-.19.19h0l-.19.19h0l-.19.19h0l-.19.19h0l-.19.19h0l-.19.19h0l-.19.19h0l-.19.19h0l-.19.19h0l-.19.19h0l-.19.19h0l-.19.19h0l-.2.19,0,0-.2.19,0,0-.2.19,0,0-.2.19,0,0-.31.23,0,0L179,199h0l-.19.17h0l-.2.18h0l-.2.18,0,0-.33.23h0l-.19.16h0l-.2.18,0,0-.33.22h0l-.2.16h0l-.21.17,0,0-.35.22h0l-.21.17,0,0-.35.21h0l-.25.17a.09.09,0,0,0-.11,0l-.19.14h0l-.35.2h0l-.21.16,0,0-.36.2h0l-.36.2h0l-.35.19h0l-.25.15a.09.09,0,0,0-.11,0l-.23.14a.12.12,0,0,0-.13,0l-.23.13a.12.12,0,0,0-.13,0l-.23.13a.12.12,0,0,0-.13,0l-.23.13a.12.12,0,0,0-.13,0l-.24.13h-.06l-.05,0-.35.17h0l-.37.17h0l-.38.17h0l-.43.18h-.06l0,0-.37.16h0l-.53.2h0l-.41.16h-.07l-.06,0-.39.15h-.08l-.07,0-.39.14h-.08l-.07,0-.39.14h-.08l-.07,0-.42.14h-.06l-.06,0-.57.17h-.08l-.07,0-.55.15h-.09l-.08,0-.56.15h-.08l-.07,0-.6.15-.29,0-.76.15-.32,0-1,.14ZM195.33,148c0-3.65,0-7.31,0-11a18.76,18.76,0,0,0-.93-6,23.9,23.9,0,0,0-6.1-10.11c-4.93-4.77-9.74-9.65-14.56-14.54a21.1,21.1,0,0,0-6.29-4.4,23.12,23.12,0,0,0-10.06-2.28q-10.33.12-20.66,0a23.45,23.45,0,0,0-16.41,6.74q-7.29,7.44-14.74,14.74a23.43,23.43,0,0,0-6.8,16.39c.07,7,0,14.08,0,21.11a19.41,19.41,0,0,0,.94,6.18,23.84,23.84,0,0,0,6,10c4.94,4.8,9.78,9.7,14.62,14.61a21.61,21.61,0,0,0,6.44,4.49,23.46,23.46,0,0,0,10.16,2.27c6.8-.06,13.6,0,20.4,0a22.4,22.4,0,0,0,8.5-1.59,22.84,22.84,0,0,0,8.07-5.22c4.94-5.05,10-10,15-15a18.71,18.71,0,0,0,3.4-4.5,23.16,23.16,0,0,0,3.08-11.66C195.26,154.85,195.33,151.43,195.33,148Z"/><path class="cls-1" d="M346.66,149.9a.08.08,0,0,0,0,.11l-.17.42h0l-.16.37a.09.09,0,0,0,0,.12l-.17.42h0l-.16.36a.11.11,0,0,0,0,.13l-.17.41h0l-.15.36a.12.12,0,0,0,0,.14l-.16.41h0l-.2.53v0L345,154a.06.06,0,0,0,0,.1l-.18.44h0l-.17.38h0l-.2.36v0l-.16.21h0l-.53.53h0l-.21.15h0l-.4.18h-.07l-.06,0h-1.43l-.06,0h-.07l-.41-.19h0l-.21-.15h0l-.53-.53h0l-.16-.21h0l-.2-.36h0l-.17-.38v0l-.2-.54h0l-.16-.41a.11.11,0,0,0,0-.13l-.15-.36h0l-.17-.42a.09.09,0,0,0,0-.12l-.16-.37h0l-.17-.43a.08.08,0,0,0,0-.11l-.16-.37h0l-.17-.44a.06.06,0,0,0,0-.1l-.16-.4a.13.13,0,0,0,0-.14l-.15-.36h0l-.16-.41a.11.11,0,0,0,0-.13l-.15-.36h0l-.17-.42a.09.09,0,0,0,0-.12l-.16-.37h0l-.17-.43a.07.07,0,0,0,0-.11l-.16-.38h0l-.2-.53h0l-.16-.41a.12.12,0,0,0,0-.14l-.15-.36h0l-.17-.41a.1.1,0,0,0,0-.13l-.16-.37h0l-.17-.42a.09.09,0,0,0,0-.12l-.16-.37h0l-.17-.43a.07.07,0,0,0,0-.11l-.16-.38h0l-.2-.53h0l-.16-.41a.12.12,0,0,0,0-.14l-.15-.36h0l-.17-.42a.1.1,0,0,0,0-.13l-.15-.37h0l-.17-.42a.08.08,0,0,0,0-.11l-.16-.37h0l-.17-.43a.07.07,0,0,0,0-.1l-.16-.38h0l-.2-.53h0l-.16-.41a.12.12,0,0,0,0-.14l-.15-.36h0l-.17-.42a.1.1,0,0,0,0-.12l-.16-.37h0l-.17-.43a.08.08,0,0,0,0-.11l-.16-.37h0l-.17-.44a.06.06,0,0,0,0-.1l-.16-.38v0l-.2-.54h0l-.16-.41a.11.11,0,0,0,0-.13l-.15-.36h0l-.17-.42a.09.09,0,0,0,0-.12l-.16-.37h0L331,132a.08.08,0,0,0,0-.11l-.16-.38h0l-.18-.44a.06.06,0,0,0,0-.1l-.16-.4a.13.13,0,0,0,0-.14l-.15-.36h0l-.16-.41a.11.11,0,0,0,0-.13l-.14-.43c0-1.7,0-3.4,0-5.09,0-1.31,0-2.62,0-3.93l.17-.79h0l.18-.37h0l.22-.34,0,0,.19-.21,0,0,.2-.19,0,0,.33-.22h0l.25-.14a.1.1,0,0,0,.12,0l.41-.14h1l.57.18h0l.36.2,0,0,.2.17h0l.19.17h0l.17.19h0l.17.21,0,0,.2.36h0l.18.56a.14.14,0,0,0,0,.16c0,2.66,0,5.32,0,8a2.73,2.73,0,0,0,.17.67h0l.18.44a.06.06,0,0,0,0,.1l.16.38v0l.2.54h0l.16.41a.11.11,0,0,0,0,.13l.15.36h0l.17.42a.1.1,0,0,0,0,.12l.16.37h0l.17.42a.08.08,0,0,0,0,.11l.16.37h0l.17.43a.07.07,0,0,0,0,.11l.16.38h0l.2.53h0l.16.41a.12.12,0,0,0,0,.14l.15.36h0l.17.41a.11.11,0,0,0,0,.13l.15.36h0l.17.42a.09.09,0,0,0,0,.12l.16.37h0l.17.42a.08.08,0,0,0,0,.11l.16.37h0l.17.44a.06.06,0,0,0,0,.1l.16.38h0l.2.53h0l.16.41a.12.12,0,0,0,0,.14l.15.36h0l.17.42a.1.1,0,0,0,0,.13l.16.37h0l.17.42a.09.09,0,0,0,0,.12l.16.37h0l.17.43a.07.07,0,0,0,0,.11l.16.38h0l.18.44a.06.06,0,0,0,0,.1l.16.38v0l.2.54h0l.16.41a.11.11,0,0,0,0,.13l.15.36h0l.17.42a.1.1,0,0,0,0,.12l.16.37h0l.17.42a.08.08,0,0,0,0,.11l.21.43.13-.25a.07.07,0,0,0,0-.1l.17-.43h0l.16-.37a.08.08,0,0,0,0-.11l.17-.42h0l.16-.37a.09.09,0,0,0,0-.12l.17-.42h0l.16-.36a.11.11,0,0,0,0-.13l.17-.41h0l.15-.36a.12.12,0,0,0,0-.14l.16-.41h0l.2-.53v0l.16-.38a.06.06,0,0,0,0-.1l.18-.44h0l.16-.38a.07.07,0,0,0,0-.11l.17-.43h0l.16-.37a.08.08,0,0,0,0-.11l.17-.42h0l.16-.37a.1.1,0,0,0,0-.12l.17-.42h0l.15-.36a.11.11,0,0,0,0-.13l.17-.41h0l.15-.36a.12.12,0,0,0,0-.14l.16-.41h0l.2-.53h0l.16-.38a.06.06,0,0,0,0-.1l.17-.44h0l.16-.37a.07.07,0,0,0,0-.11l.17-.43h0l.16-.37a.08.08,0,0,0,0-.12l.17-.42h0l.16-.37a.1.1,0,0,0,0-.12l.17-.42h0l.15-.36a.11.11,0,0,0,0-.13l.16-.41h0l.15-.36a.12.12,0,0,0,0-.14l.16-.41h0l.2-.53h0l.16-.38a.06.06,0,0,0,0-.1l.17-.44h0l.16-.37a.07.07,0,0,0,0-.11l.16-.43c0-.44.07-.89.06-1.33,0-2.23,0-4.46,0-6.69l.18-1h0l.18-.37h0l.22-.35,0,0,.19-.2,0,0,.2-.2,0,0,.33-.23h0l.25-.15a.09.09,0,0,0,.12,0l.42-.14.48,0h.18l.33,0,.57.18h0l.36.2h0l.2.17h0l.18.17h0l.17.18h0l.17.2v0l.2.36h0l.16.44,0,.28,0,9.52h0l-.15.36a.12.12,0,0,0,0,.14l-.16.41h0l-.2.54v0l-.16.38a.06.06,0,0,0,0,.1l-.18.44h0l-.16.38a.07.07,0,0,0,0,.11l-.17.43h0l-.16.37a.08.08,0,0,0,0,.11l-.17.42h0l-.16.37a.1.1,0,0,0,0,.12l-.17.42h0l-.15.36a.11.11,0,0,0,0,.13l-.17.41h0l-.15.36a.12.12,0,0,0,0,.14l-.16.41h0l-.2.53h0l-.16.38a.06.06,0,0,0,0,.1l-.17.44h0l-.16.37a.07.07,0,0,0,0,.11l-.17.43h0l-.16.37a.09.09,0,0,0,0,.12l-.17.42h0l-.15.37a.1.1,0,0,0,0,.13l-.17.42h0l-.15.36a.11.11,0,0,0,0,.13l-.16.41h0l-.15.36a.12.12,0,0,0,0,.14l-.16.4h0l-.2.53h0l-.16.38a.06.06,0,0,0,0,.1l-.17.44h0L349,144a.08.08,0,0,0,0,.11l-.17.42h0l-.16.37a.09.09,0,0,0,0,.12l-.17.42h0l-.16.37a.1.1,0,0,0,0,.13l-.17.42h0l-.15.36a.12.12,0,0,0,0,.14l-.16.41h0l-.2.54v0l-.16.38h0l-.2.53h0L347,149a.07.07,0,0,0,0,.11l-.17.43h0Z"/><path class="cls-1" d="M273.3,136.48q0,5.88,0,11.77l-.17.94a.07.07,0,0,0,0,.11l-.14.43a.11.11,0,0,0,0,.13l-.16.41h0l-.17.36a.06.06,0,0,0,0,.09l-.16.27h0l-.2.35h0l-.22.35,0,0-.17.22h0l-.16.2h0l-.23.33,0,0-.19.21,0,0-.19.2h0l-.19.2h0l-.19.19h0l-.19.19h0l-.19.19h0l-.2.19h0l-.2.19,0,0-.21.19,0,0-.32.24h0l-.19.16h0l-.21.17,0,0-.33.22h0l-.21.16h0l-.34.21h0l-.22.15,0,0-.37.2h0l-.37.19h0l-.4.18h-.07l-.06,0-.36.15h0l-.55.18h0l-.75.18-.08,0-.07,0h-8.26l-.08,0-.08,0-.74-.18h0l-.54-.18h0l-.53-.2h0l-.38-.18h0l-.37-.19h0l-.36-.2,0,0-.21-.15h0l-.34-.21h0l-.2-.15h0l-.33-.22,0,0-.21-.17h0l-.19-.16h0l-.5-.41,0,0-.2-.19,0,0-.2-.19,0,0-.2-.19v0l-.19-.2,0,0-.19-.2,0,0-.19-.2,0,0-.41-.51h0l-.16-.2h0l-.17-.21,0,0-.22-.34h0l-.16-.22,0,0-.21-.36h0l-.19-.37h0l-.18-.38v0l-.2-.54h0l-.17-.57a.12.12,0,0,0,0-.15l-.15-.95q0-5.69,0-11.38l.16-1a.08.08,0,0,0,0-.12l.14-.42a.13.13,0,0,0,0-.15l.16-.39a.08.08,0,0,0,0-.11l.19-.42v0l.2-.37,0,0,.15-.22h0l.21-.34h0l.15-.21h0l.22-.33,0,0,.18-.21h0l.16-.19h0l.41-.5,0,0,.2-.2,0,0,.19-.2,0,0,.2-.19,0,0,.2-.2,0,0,.49-.42h0l.19-.16h0l.2-.17h0l.21-.18,0,0L253,130h0l.21-.16,0,0,.35-.21h0l.34-.19h0l.26-.15a.08.08,0,0,0,.11,0l.25-.14a.07.07,0,0,0,.11,0l.37-.16h0l.54-.19h0l.58-.17a.11.11,0,0,0,.14,0l.93-.16.87,0h6.1l.66,0,.77.15a.13.13,0,0,0,.15,0l.57.17a.07.07,0,0,0,.1,0l.43.17h0l.37.16a.06.06,0,0,0,.1,0l.26.15a.06.06,0,0,0,.1,0l.27.15h0l.35.2h0l.36.22,0,0,.22.17h0l.34.23,0,0,.22.18h0l.2.17h0l.19.16h0l.31.24,0,0,.21.19,0,0,.2.19,0,0,.2.19,0,0,.2.19,0,0,.19.2,0,0,.2.2,0,0,.19.21,0,0,.24.32h0l.16.19h0l.17.21,0,0,.22.34h0l.16.21,0,0,.2.36h0l.19.36h0l.18.37h0l.17.43a.07.07,0,0,0,0,.1l.17.57a.14.14,0,0,0,0,.16Zm-4.94,6h0c0-1.65,0-3.29,0-4.94a2.75,2.75,0,0,0-1.23-2.45,15.06,15.06,0,0,1-1.27-1,3.34,3.34,0,0,0-2.22-.83q-2.51,0-5,0a4,4,0,0,0-2.92,1.16c-.38.38-.81.71-1.22,1.06a2.49,2.49,0,0,0-.9,2q0,5,0,10a2.64,2.64,0,0,0,1,2.11c.42.34.84.68,1.22,1.06a3.31,3.31,0,0,0,2.59,1c1.26,0,2.51,0,3.77,0,2.53,0,2.64.24,4.82-1.78l.14-.11a2.92,2.92,0,0,0,1.25-2.71C268.33,145.44,268.36,143.94,268.36,142.44Z"/><path class="cls-1" d="M327,137.75l0,1.55.15,3.3,0,1.73.15,3.3,0,1.55.15,3.48v1.85l-.14.42a.08.08,0,0,0,0,.11l-.15.26h0l-.23.33,0,0-.19.2,0,0-.54.39h0l-.4.18h-.07l-.06,0h-1.43l-.05,0h-.06l-.42-.19,0,0-.21-.15h0l-.32-.24,0,0-.4-.52h0l-.18-.37h0l-.17-.79,0-1.19-.15-3.12,0-1.37-.15-3.12,0-1.38-.15-3.12,0-1.38-.15-3.12,0-1-.15-.58a.12.12,0,0,0,0-.14l-.13-.21,0,0-.22-.35h0l-.18-.19h0l-.2-.16h0l-.35-.19h0l-.54-.17-.07,0-.08,0a9.32,9.32,0,0,0-3.5,0l-.07,0-.06,0-.58.17h-.08l-.06,0-.26.13h-.06l0,0-.25.15a.08.08,0,0,0-.11,0l-.2.14h0l-.34.21h0l-.21.15,0,0-.34.21h0l-.21.16,0,0-.35.21h0l-.21.16,0,0-.35.21h0l-.21.16,0,0-.35.22h0l-.22.16,0,0-.35.22h0l-.22.16,0,0-.35.22h0l-.26.17a.07.07,0,0,0-.1,0l-.19.14h0l-.33.21h0l-.21.15h0l-.34.21h0l-.24.15h-.07l-.06,0-.2.14h0l-.34.21h0l-.21.16,0,0-.35.21h0l-.25.16h-.06l0,0a1.94,1.94,0,0,0-.17.55q0,7.71,0,15.42a.18.18,0,0,0,0,.17l-.2.55v0l-.22.36,0,0-.19.21,0,0-.2.2,0,0-.21.19,0,0-.35.22h0l-.39.18h-.08l-.07,0-1.43,0h0l-.37-.17h0l-.34-.21,0,0-.2-.18h0l-.19-.19h0l-.18-.2,0,0-.21-.34h0l-.17-.37h0c0-.48,0-1,0-1.44q0-6.25,0-12.49,0-5.35,0-10.69a.08.08,0,0,0,0-.12l.19-.42,0,0,.16-.21h0l.24-.32,0,0,.2-.2,0,0,.33-.23h0l.26-.16a.07.07,0,0,0,.1,0l.43-.15.47,0h.18l.33,0,.57.18h0l.36.2,0,0,.21.17h0l.19.17h0l.17.19h0l.17.2,0,0,.2.36h0l.17.42a.08.08,0,0,0,0,.11c0,.58,0,1.16,0,1.74,0,.09.12.18.18.26l.18-.05.2-.14h0l.35-.21h0l.26-.16a.08.08,0,0,0,.1,0l.2-.14h0l.38-.18h0l.36-.21h0l.34-.2h0l.21-.15,0,0,.36-.21h0l.26-.16a.08.08,0,0,0,.1,0l.2-.14h0l.35-.21h0l.22-.15,0,0,.36-.21h0l.35-.2h0l.26-.15a.08.08,0,0,0,.11,0l.24-.14a.1.1,0,0,0,.12,0l.25-.13a.07.07,0,0,0,.1,0l.37-.16h0l.56-.19a.15.15,0,0,0,.16,0l.55-.15a.15.15,0,0,0,.16,0l.94-.15,1,0h2.33l.84,0,.78.15a.11.11,0,0,0,.14,0l.58.18h0l.37.16a.09.09,0,0,0,.12,0l.41.19,0,0,.21.14a.08.08,0,0,0,.11,0l.26.16h0l.35.22,0,0,.21.18h0l.2.17h0l.18.16h0l.71.71v0l.16.18h0l.17.2h0l.18.21,0,0,.22.34h0l.16.22,0,0,.2.37v0l.19.41a.11.11,0,0,0,0,.13l.15.36h0l.18.56a.14.14,0,0,0,0,.16l.14.61,0,.29Z"/><path class="cls-1" d="M225,146.23a.08.08,0,0,0,0-.11l-.14-.21,0,0-.2-.37v0l-.2-.37v0l-.19-.37v0l-.19-.37h0l-.19-.37h0l-.19-.37h0l-.19-.37h0l-.19-.36h0l-.18-.36h0l-.19-.36h0l-.18-.36h0l-.18-.36h0l-.17-.38h0l-.2-.54h0l-.18-.54h0l-.16-.6a.08.08,0,0,0,0-.12l-.16-.79,0-.29V135.7l0-.31.15-.77a.13.13,0,0,0,0-.15l.16-.57a.09.09,0,0,0,0-.12l.15-.42a.07.07,0,0,0,0-.11l.18-.43h0l.19-.37h0l.19-.37h0l.2-.37v0l.2-.37,0,0,.14-.21a.08.08,0,0,0,0-.11l.14-.25a.06.06,0,0,0,0-.1l.15-.27h0l.19-.35h0l.19-.36h0l.19-.36h0l.19-.37h0l.2-.37v0l.2-.37,0,0,.14-.21a.08.08,0,0,0,0-.11l.14-.25a.06.06,0,0,0,0-.1l.15-.27h0l.18-.35h0l.19-.36h0l.19-.36h0l.19-.37h0l.2-.37v0l.2-.37v0l.2-.37,0,0,.14-.21a.07.07,0,0,0,0-.1l.15-.27h0l.18-.35h0l.19-.36h0l.19-.36h0l.19-.37h0l.19-.37h0l.2-.37v0l.2-.37,0,0,.14-.21a.08.08,0,0,0,0-.11l.16-.26h0l.21-.35,0,0,.16-.21h0l.24-.33,0,0,.19-.21,0,0,.19-.2,0,0,.19-.2,0,0,.2-.19,0,0,.21-.19,0,0,.31-.24h0l.19-.16h0l.21-.17,0,0,.34-.22h0l.22-.16,0,0,.36-.21h0l.37-.19h0l.4-.18a.12.12,0,0,0,.14,0l.39-.15a.14.14,0,0,0,.15,0l.59-.14.67,0H244l.49,0,.58.19h0l.36.21,0,0,.21.18,0,0,.2.19v0l.19.2,0,0,.22.34h0l.17.36h0l.16.78a1,1,0,0,0,0,.16s0,0,0,.07l-.17.78h0l-.18.37h0l-.22.34,0,0-.19.21,0,0-.2.19,0,0-.32.22h0l-.22.14,0,0-.58.2h-9.39c-.15,0-.3,0-.44,0l-.62.14H234l0,0-.22.15,0,0-.57.55,0,0-.17.22h0l-.21.36,0,0-.14.21a.06.06,0,0,0,0,.1l-.15.27h0l-.19.35h0l-.19.36h0l-.19.36h0l-.2.37v0l-.2.37,0,0-.14.21a.08.08,0,0,0,0,.11l-.15.26h0l-.18.35h0l-.19.36h0l-.19.36h0l-.19.37h0l-.2.37v0l-.2.37,0,0-.14.21a.06.06,0,0,0,0,.1l-.15.27h0l-.19.35h0l-.19.36h0l-.19.37h0l-.2.37v0l-.2.37,0,0-.14.21a.08.08,0,0,0,0,.11l-.15.26h0l-.19.35h0l-.19.36h0l-.19.36h0l-.2.37h0l-.2.37,0,0-.14.21a.09.09,0,0,0,0,.11l-.14.25a.1.1,0,0,0,0,.12l-.16.42h0l-.16.54,0,.29a4.2,4.2,0,0,0,0,2.46.1.1,0,0,0,0,.13l.16.61a.07.07,0,0,0,0,.11l.16.41a.11.11,0,0,0,0,.13l.13.25a.08.08,0,0,0,0,.11l.14.25a.08.08,0,0,0,0,.11l.14.21,0,0,.19.38v0l.2.37v0l.19.37h0l.19.37h0l.19.37h0l.19.37h0l.19.36h0l.18.36h0l.18.36h0l.18.35h0l.15.27a.06.06,0,0,0,0,.1l.14.25a.08.08,0,0,0,0,.11l.14.21,0,0,.2.37v0l.2.37v0l.19.37h0l.19.37h0l.19.37h0l.19.37h0l.19.36h0l.18.36h0l.18.36h0l.18.35h0l.15.27a.06.06,0,0,0,0,.1l.14.25a.08.08,0,0,0,0,.11l.14.25a.09.09,0,0,0,0,.11l.14.21,0,0,.2.37v0l.22.34h0l.17.19h0l.18.17h0l.34.22h0l.38.17h0l.91.15,4.92,0h4.39l.58.19h0l.37.2,0,0,.21.17h0l.19.17h0l.17.18h0l.17.2v0l.2.36h0l.16.43,0,.29v.71a.12.12,0,0,0,0,.14l-.2.57,0,0-.15.22h0l-.23.32,0,0-.2.2,0,0-.32.23h0l-.21.15h0l-.41.18h-.07l-.06,0h-11l-.07,0h-.08l-.58-.16-.05,0h-.07l-.42-.16h0l-.35-.16-.06,0h-.07l-.41-.2,0,0-.21-.14,0,0h-.06l-.26-.16h0l-.35-.21,0,0-.21-.16h0l-.34-.23,0,0-.21-.18,0,0-.2-.18h0l-.19-.18h0l-.18-.18h0l-.18-.19h0l-.18-.2h0l-.18-.21,0,0-.22-.35h0l-.19-.35h0l-.18-.35h0l-.15-.27a.06.06,0,0,0,0-.1l-.15-.25a.08.08,0,0,0,0-.11l-.14-.25a.08.08,0,0,0,0-.11l-.14-.21,0,0-.19-.38v0l-.2-.37v0l-.19-.37v0l-.19-.37h0l-.19-.37h0l-.19-.37h0l-.19-.37h0l-.19-.36h0l-.18-.36h0l-.18-.36h0l-.18-.35h0l-.15-.27a.06.06,0,0,0,0-.1l-.15-.26a.07.07,0,0,0,0-.1Z"/><path class="cls-1" d="M369.47,151.33a.09.09,0,0,0,.12,0l1,.15,6.15,0h3.12l.44.15h0l.35.18h0l.34.23,0,0,.21.19,0,0,.19.21,0,0,.22.35h0l.18.37h0l0,1.61a.08.08,0,0,0,0,.12l-.2.41,0,0-.17.21h0l-.17.19h0l-.18.18h0l-.2.17h0l-.34.2h0l-.37.17h0c-.48,0-1,0-1.44,0h-9.52l-.29,0-.61-.17h0l-.55-.2h0l-.38-.17h0l-.37-.18h0l-.36-.19h0l-.36-.21,0,0-.22-.16h0l-.34-.22,0,0-.21-.17h0l-.2-.16h0l-.5-.41,0,0-.2-.2,0,0-.41-.51h0l-.16-.21,0,0-.21-.35h0l-.18-.35h0l-.15-.27a.06.06,0,0,0,0-.09l-.15-.26a.06.06,0,0,0,0-.1l-.14-.25a.08.08,0,0,0,0-.11l-.14-.21,0,0-.2-.37v0l-.19-.37v0l-.19-.37v0l-.19-.37h0l-.19-.37h0l-.19-.37h0l-.19-.37h0l-.19-.36h0l-.18-.36h0l-.19-.36h0l-.18-.36h0l-.18-.35h0l-.15-.27a.06.06,0,0,0,0-.1l-.14-.25a.08.08,0,0,0,0-.11l-.14-.25a.08.08,0,0,0,0-.11l-.14-.21,0,0-.19-.38v0l-.2-.37v0l-.19-.37h0l-.19-.37h0l-.19-.37h0l-.19-.37h0l-.19-.37h0l-.19-.36h0l-.18-.36h0l-.18-.36h0l-.18-.36h0l-.17-.37h0l-.17-.42a.1.1,0,0,0,0-.12l-.15-.4a.12.12,0,0,0,0-.14l-.14-.42a.08.08,0,0,0,0-.12l-.15-.61,0-.29-.15-1.13q0-.75,0-1.5l.14-1.13,0-.31.15-.59a.13.13,0,0,0,0-.15l.18-.57h0l.15-.37a.11.11,0,0,0,0-.13l.18-.41h0l.19-.37h0l.2-.37v0l.2-.37v0l.2-.37,0,0,.14-.21a.07.07,0,0,0,0-.1l.15-.27h0l.18-.35h0l.19-.36h0l.19-.36h0l.19-.37h0l.19-.37h0l.2-.37v0l.2-.37,0,0,.14-.21a.08.08,0,0,0,0-.11l.15-.26h0l.18-.35h0l.19-.35h0l.19-.36h0l.19-.36h0l.19-.37h0l.2-.37v0l.2-.37,0,0,.14-.21a.08.08,0,0,0,0-.11l.14-.25a.06.06,0,0,0,0-.1l.15-.27h0l.18-.35h0l.19-.36h0l.19-.36h0l.19-.37h0l.19-.37v0l.2-.37,0,0,.14-.21a.08.08,0,0,0,0-.11l.15-.26h0l.2-.34h0l.22-.35,0,0,.18-.21h0l.18-.2h0l.17-.19h0l.17-.18h0l.17-.17h0l.18-.17h0l.19-.17h0l.2-.18h0l.21-.18,0,0,.34-.23h0l.21-.16,0,0,.35-.21h0l.27-.16a.06.06,0,0,0,.1,0l.25-.14a.08.08,0,0,0,.11,0l.36-.16h0l.43-.16a.07.07,0,0,0,.11,0l.75-.17.51,0h9.88l.34,0,.56.17h0l.36.19h0l.2.16h0l.17.16,0,0,.16.17h0l.16.2h0l.17.27a.06.06,0,0,0,0,.09l.16.39a.13.13,0,0,0,0,.15v1.07a.1.1,0,0,0,0,.13l-.16.41h0l-.2.35h0l-.16.2h0l-.16.18h0l-.18.16h0l-.2.16h0l-.36.2h0l-.56.18-9.68,0-.73.15h0l-.36.2h0l-.2.18h0l-.19.19h0l-.17.2h0l-.21.35,0,0-.14.21a.08.08,0,0,0,0,.11l-.15.26h0l-.18.35h0l-.19.36h0l-.19.36h0l-.19.37h0l-.2.37v0l-.2.37,0,0-.14.21a.06.06,0,0,0,0,.1l-.15.27h0l-.19.35h0l-.19.36h0l-.19.37h0l-.2.37v0l-.2.37,0,0-.14.21a.08.08,0,0,0,0,.11l-.15.26h0l-.19.35h0l-.19.36h0l-.19.36h0l-.19.37h0l-.2.37v0l-.2.37,0,0-.14.21a.06.06,0,0,0,0,.1l-.15.27h0l-.19.35h0l-.19.36h0l-.19.37h0l-.2.37v0l-.2.37,0,0-.14.21a.09.09,0,0,0,0,.11l-.18.42h0l-.14.38a.14.14,0,0,0,0,.16l-.16.74v1.8l.15.8a.06.06,0,0,0,0,.1l.17.56h0l.17.42a.09.09,0,0,0,0,.11l.14.25a.08.08,0,0,0,0,.11l.14.21,0,0,.2.37v0l.2.37v0l.19.37v0l.19.37h0l.19.37h0l.19.37h0l.19.36h0l.18.36h0l.19.36h0l.18.35h0l.15.27a.06.06,0,0,0,0,.09l.15.25a.08.08,0,0,0,0,.11l.14.25a.08.08,0,0,0,0,.11l.14.21,0,0,.19.37v0l.2.37v0l.19.37h0l.19.37h0l.19.37h0l.19.36h0l.19.36h0l.19.36h0l.18.36h0l.15.27a.06.06,0,0,0,0,.09l.15.26a.07.07,0,0,0,0,.1l.14.25a.08.08,0,0,0,0,.11l.14.21,0,0,.19.38v0l.21.36h0l.18.21,0,0,.19.2,0,0,.21.19,0,0,.21.16h0Z"/><path class="cls-1" d="M347.18,183.13h.73l.72-.16h0l.37-.18h0l.22-.17,0,0,.2-.2,0,0,.17-.22h0l.16-.37a.1.1,0,0,0,0-.13l.16-.77a.09.09,0,0,0,0-.12l.15-.77,0-.32.15-1.12,0-.47.15-1.69v-1.08a3.83,3.83,0,0,0-2.35,0h0l-.19.37h0l-.18.37h0l-.18.37h0l-.19.36h0l-.19.36h0l-.2.37h0l-.21.37,0,0-.15.22h0l-.2.35h0l-.22.36,0,0-.16.22h0l-.22.35,0,0-.17.21h0l-.22.35,0,0-.17.22h0l-.16.2h0l-.23.33,0,0-.18.21h0l-.17.2h0l-.4.52,0,0-.18.21h0l-.18.2h0l-.17.19h0l-.16.18h0l-.42.49,0,0-.2.2,0,0-.19.2,0,0-.2.2,0,0-.2.2,0,0-.2.2,0,0-.2.2,0,0-.2.2,0,0-.2.19,0,0-.2.2,0,0-.49.42h0l-.17.16h0l-.19.17h0l-.2.18h0l-.2.18,0,0-.21.19,0,0-.32.24h0l-.19.16h0l-.2.17h0l-.26.18h0l-.4-.21,0,0-.22-.18h0l-.21-.16h0l-.35-.21,0,0-.21-.15h0l-.34-.19h0l-.36-.19h0l-.37-.18h0l-.36-.17,0,0h-.06l-.08-.34h0l.22-.15,0,0,.37-.21h0l.36-.2h0l.27-.17a.07.07,0,0,0,.1,0l.2-.15h0l.34-.21h0l.21-.16,0,0,.33-.22h0l.2-.16h0l.22-.17,0,0,.33-.23h0l.2-.17h0l.21-.18,0,0,.31-.23h0l.18-.16h0l.19-.17h0l.2-.18h0l.2-.19,0,0,.2-.19,0,0,.2-.2,0,0,.2-.2,0,0,.2-.2,0,0,.2-.2,0,0,.19-.2,0,0,.19-.2h0l.18-.2h0l.17-.19h0l.16-.18v0l.23-.32,0,0,.18-.21h0l.16-.2h0l.23-.33,0,0,.17-.21h0l.22-.35,0,0,.16-.22h0l.21-.35,0,0,.14-.2a.07.07,0,0,0,0-.1l.15-.27h0l.19-.35h0l.18-.36h0l.17-.37h0v-.29a6.77,6.77,0,0,0-2.51.12h0l-.22.33,0,0L342,176h0l-.22.34,0,0-.16.21h0l-.23.34,0,0-.18.21h0l-.16.2h0l-.23.33,0,0-.18.21h0l-.17.2h0l-.16.19h0l-.24.32,0,0-.19.21,0,0-.19.2h0l-.18.2h0l-.18.19h0l-.17.19h0l-.17.18h0l-.16.17h0l-.89.89h0l-.17.16h0l-.18.17h0l-.18.17h0l-.19.18h0l-.2.18h0l-.2.19,0,0-.21.19,0,0-.51.41h0l-.19.16h0l-.2.18,0,0-.21.18,0,0-.33.23h0l-.2.16h0l-.21.18,0,0-.33.23h0l-.2.16h0l-.21.17,0,0-.36.21h-.14v0l-.2-.19h0l-.19-.2h0l-.2-.19h0l-.2-.18h0l-.19-.16h0l-.33-.22h0l-.21-.15h0l-.34-.2h0l-.36-.19h0l-.37-.18h0l-.35-.22,0,0a.37.37,0,0,0,0-.13l0,0,.52-.23h0l.38-.16h0l.43-.18a.08.08,0,0,0,.11,0l.35-.17h0L333,181h0l.35-.18h0l.26-.15a.07.07,0,0,0,.1,0l.2-.14,0,0,.36-.21h0l.22-.16,0,0,.35-.22h0l.21-.17,0,0,.33-.23h0l.2-.16h0l.21-.18,0,0,.5-.41h0l.18-.16h0l.18-.17h0l.18-.18h0l.18-.18h0l.18-.18h0l.18-.18h0l.16-.18h0l.41-.5,0,0,.18-.21h0l.16-.2h0l.22-.33,0,0,.17-.21h0l.22-.35,0,0,.16-.22h0c0-.11,0-.31,0-.31l-1.8.11h0l-.21.18,0,0-.31.24,0,0-.18.16h0l-.19.17h0l-.2.18h0l-.21.18,0,0-.51.4h0l-.2.16h0l-.21.18,0,0-.21.18,0,0-.33.24h0l-.2.17h0l-.21.18,0,0-.33.23h0l-.21.16h0l-.32.22h0l-.2.15h0l-.21.17,0,0-.35.22h0l-.21.16,0,0-.52,0h0l-.16-.22,0,0-.23-.34h0l-.17-.2h0l-.19-.2h0l-.19-.2h0l-.2-.19h0l-.2-.18h0l-.2-.17h0l-.33-.23,0,0-.22-.17h0l-.19-.19h0a1.12,1.12,0,0,1,0-.16h0l.4-.19a.12.12,0,0,0,.14,0l.36-.15h0l.38-.17h0l.38-.18h0l.38-.19h0l.37-.2h0l.37-.2h0l.35-.2h0l.22-.16,0,0,.35-.22h0l.21-.17,0,0,.34-.22h0l.2-.17h0l.21-.18,0,0,.32-.24h0l.19-.16h0l.2-.18h0l.2-.18,0,0,.2-.19,0,0,.2-.19,0,0,.2-.2,0,0,.2-.2,0,0,.2-.2,0,0,.19-.2,0,0,.19-.2,0,0,.19-.2h0l.18-.2h0c.17-.12.42-.34,0-.36a10.53,10.53,0,0,0-1.66.16l-.33,0-.7-.08v-.24l.15-1.32c0-1.63.07-3.26.08-4.89,0-.83,0-1.66-.08-2.49l-.16-1.29,0,0,0,0,.88-.07.31,0a8.24,8.24,0,0,0,1.14.16q6.19,0,12.37,0a8.29,8.29,0,0,0,1.14-.16l.32,0c.26.1.72-.2.73.37l0,.32-.15,1.12v6.66l.15,1.67v.24l-.7.07-.07,0-.08,0-1.29-.15h-8.09l-.13,0,.12.14h0l0,.7,0,0-.42.21H340l0,0-.52.19h0l-.15.3.53,0h10.82a11.31,11.31,0,0,0,1.23-.13l.32,0,.94-.16a.11.11,0,0,0,.14,0,.33.33,0,0,0,.17,0l0,0,0,1.07,0,.65-.15,1.51,0,.5-.16,1.48,0,.32-.16,1.3,0,.31-.16,1.13,0,.29-.16,1a.08.08,0,0,0,0,.12l-.18.59h0l-.17.37h0l-.21.36,0,0-.17.21h0l-.16.19h0l-.16.17,0,0-.17.16h0l-.2.16h0l-.21.17,0,0-.36.21h0l-.37.19h0l-.42.18h-.06l-.05,0-.43.15h-.06l0,0-.62.16-.29,0-1.11.15h-.44l-.23-.55a.15.15,0,0,0,0-.16l-.14-.39a.13.13,0,0,0,0-.15l-.15-.35h0l-.17-.37h0l-.19-.37h0l-.19-.36h0c-.07-.31.13-.35.36-.36a.12.12,0,0,0,.15,0Zm-4.88-13.67h4.58c1.11,0,1,.16,1-1.08,0-.64,0-.66-.64-.66H337.4c-.61,0-.61,0-.63.67,0,.12,0,.24,0,.36,0,.69,0,.7.69.71Zm.13-3.9c1.64,0,3.28,0,4.93,0,.42,0,.61-.13.56-.56,0-.15,0-.3,0-.45,0-.78,0-.79-.78-.79h-9.59c-.78,0-.78,0-.79.79,0,.12,0,.24,0,.36,0,.63,0,.65.65.65Z"/><path class="cls-1" d="M290.56,130.74c0,.3-.05.59-.05.89q0,9.41,0,18.82c0,.18,0,.36,0,.54,0,.43.14.58.57.57,1.61,0,3.22,0,4.84,0l.42.14a.1.1,0,0,0,.12,0l.24.14a.07.07,0,0,0,.1,0l.26.19,0,0,.2.19h0l.19.2h0l.18.21,0,0,.21.4a.1.1,0,0,0,0,.13l.15.57v.63l-.17.59h0l-.19.36h0l-.15.2v0l-.54.52h0l-.21.16,0,0-.41.19h-.07l-.05,0H279.79l-.05,0h-.06l-.42-.19,0,0-.21-.16h0l-.54-.53h0l-.15-.2h0l-.19-.37h0l-.18-.78v-.23l.16-.78a.06.06,0,0,0,0-.1l.15-.27h0l.22-.34,0,0,.19-.2h0l.2-.19,0,0,.21-.18,0,0,.36-.21h0l.58-.19,5.34,0a2.06,2.06,0,0,0,.16-.55q0-8.5,0-17a2.06,2.06,0,0,0-.16-.55l-5.32,0-.43-.15,0,0h-.06l-.27-.16h0l-.33-.23,0,0-.2-.2,0,0-.24-.32h0l-.16-.21,0,0-.19-.42a.08.08,0,0,0,0-.11v-1.44h0l.22-.53,0,0,.16-.22h0l.51-.55h0l.19-.15h0l.35-.19h0l.43-.15.47,0h7.54l.49,0,.41.14a.1.1,0,0,0,.12,0l.25.15h0l.33.23,0,0,.2.19,0,0,.19.21,0,0,.22.34h0l.18.37h0Z"/><path class="cls-1" d="M267.91,160.56v.25l-.16.23h0l-.18.18h0l-.2.17h0l-.19.19h0l-.15.38,0,.47q0,.88,0,1.76v1a10.51,10.51,0,0,0,4,0l.49,0,1-.14h0l.1,1.24,0,.47a2.38,2.38,0,0,0-.12.51q0,2.5,0,5c0,.1.09.2.14.3h.9l1.14-.15h.26q0,1.34,0,2.68h-.23l-1-.14-.49,0s-.05,0-.08,0c-1.87,0-3.74-.08-5.61-.08-.48,0-.28.32-.13.55a.1.1,0,0,0,0,.13l.16.36h0l.17.38h0l.19.38v0l.19.37v0l.2.37h0l.2.35h0l.16.22,0,0,.22.35h0l.17.21,0,0,.23.33h0l.16.2h0l.18.21,0,0,.19.21,0,0,.24.31,0,0,.16.17h0l.17.17h0l.17.17h0l.17.17h0l.5.42,0,0,.21.19,0,0,.21.18h0l.2.16h0l.33.22,0,0,.21.16h0l.35.22,0,0,.22.16h0l.35.2h0l.37.2h0l.37.2,0,0,.21.13a.1.1,0,0,0,.12,0l.41.19h0l.38.17h0l.37.16a.08.08,0,0,0,.11,0l.08.34h0l-.21.16,0,0-.33.22h0l-.2.16h0l-.21.18,0,0-.51.4h0l-.18.16h0l-.18.18h0l-.18.18h0l-.18.18h0l-.18.18h0l-.36,0h0l-.34-.21h0l-.21-.15h0l-.33-.22h0l-.21-.16h0l-.33-.23,0,0-.21-.18h0l-.2-.16h0l-.33-.23,0,0-.21-.18h0l-.2-.18h0l-.19-.17h0l-.18-.16,0,0-.31-.24,0,0-.2-.19,0,0-.2-.19,0,0-.2-.2,0,0-.2-.2,0,0-.2-.2,0,0-.2-.2,0,0-.19-.2,0,0-.19-.2,0,0-.24-.31v0l-.16-.18h0l-.17-.2h0l-.18-.21,0,0-.22-.32v0l-.15-.2h0l-.17-.21,0,0-.22-.35h0l-.16-.22,0,0-.21-.36h0l-.2-.36h0l-.19-.36h0l-.22-.44-.15.25h0l-.17.37h0l-.18.36h0l-.19.36h0l-.21.36,0,0-.16.21h0l-.22.34,0,0-.17.21h0l-.23.33,0,0-.18.21,0,0-.18.2h0l-.17.19h0l-.17.18h0l-1.07,1.07h0l-.18.16h0L262,183h0l-.2.18h0l-.21.18,0,0-.52.4h0l-.2.17h0l-.22.17,0,0-.34.23h0l-.21.17,0,0-.34.22h0l-.21.16,0,0-.35.21h0l-.22.16,0,0-.36.21h0l-.35.2h0l-.26.15a.08.08,0,0,0-.11,0l-.2.14,0,0a2.78,2.78,0,0,1-.59-.26c-.35-.26-.66-.56-1-.84l0,0-.21-.18,0,0-.21-.17h0l-.34-.23,0,0-.22-.16h0l-.36-.21,0,0,.2-.33a.1.1,0,0,0,.13,0l.41-.15a.1.1,0,0,0,.13,0l.38-.15h0l.53-.2h0l.38-.17h0l.38-.18h0l.38-.19h0l.37-.19h0l.36-.2h0l.34-.2h0l.21-.15h0l.33-.21h0l.2-.16h0l.21-.18,0,0,.32-.23h0l.19-.16h0l.19-.18h0l.2-.19h0l.2-.19h0l.19-.19h0l.19-.2h0l.18-.2h0l.17-.19h0l.16-.19v0L262,179l0,0,.17-.21h0l.22-.35,0,0,.16-.22h0l.2-.35h0l.2-.37h0l.18-.38h0l.17-.38h0l.15-.36a.12.12,0,0,0,0-.14l.15-.4a.12.12,0,0,0,0-.14l.16-.58a.09.09,0,0,0,0-.12v-.25H260l-.49,0-1.14.15h-.25l-.21-.21q0-1.13,0-2.27l.17-.2h.3l1.31.15.86,0h3.58l.08-1c0-1.3.08-2.6.11-3.89,0,0-.09-.07-.13-.1h-2.34l-1.85.14-.48,0c-.12-.1-.34-.2-.35-.3,0-.74,0-1.48,0-2.24h1.08l.32,0c1.16,0,2.32.11,3.47.13.1,0,.31-.22.3-.33,0-.86-.08-1.72-.13-2.58l0-1.55a1.75,1.75,0,0,0,0-.35c-.05-.42.08-.62.53-.54a1.69,1.69,0,0,0,.35,0l.32,0,1.3.16.31,0,.58.14a.09.09,0,0,0,.12,0Zm-1,9.41h-.06c0,.72,0,1.43,0,2.15,0,.39.14.54.52.53h2.06c.34,0,.47-.16.47-.49,0-1.4,0-2.8,0-4.21,0-.36-.16-.47-.49-.46-.66,0-1.31,0-2,0-.38,0-.54.13-.53.52C266.91,168.66,266.9,169.31,266.9,170Z"/><path class="cls-1" d="M243.89,161.78l.5,0c.23,0,.47,0,.7,0s.4.06.39.33c0,.65,0,1.29,0,1.94,0,.1-.23.19-.35.29l-.66,0-2.4-.14h-1.44l-.25,0,.24.15h0a1.46,1.46,0,0,0,0,.16H240c-.05-.12-.09-.32-.17-.34a3.25,3.25,0,0,0-.71,0H227.76c-.27,0-.54,0-.8,0a2.48,2.48,0,0,0-.17.63q0,8.39,0,16.77c0,.72,0,.73.75.73h16.59a12.87,12.87,0,0,0,1.41-.15l.48,0,1.07,0v2.42l-.52.07-.48,0-2.58-.15a3.21,3.21,0,0,0-.35,0H228.2a3.21,3.21,0,0,0-.35,0l-2.57.15-.49,0-.88-.1v0l.14-1.14,0-.84c0-.44.13-.89.13-1.33q0-8.18,0-16.35a10.2,10.2,0,0,0-.13-1.15l0-.65-.15-1.14v0l1.24-.1.49,0a13.78,13.78,0,0,0,1.41.14q7.67,0,15.34,0C242.89,161.92,243.39,161.83,243.89,161.78Z"/><path class="cls-1" d="M370.4,182.25a.1.1,0,0,0,0,.13l-.19.41v0l-.2.37v0l-.2.37,0,0-.15.22h0l-.2.35h0l-.21.36,0,0-.16.21h0l-.22.35,0,0-.17.21h0l-.15.2v0l-.22.32,0,0-.24.19h0l-.25-.16h0l-.34-.23,0,0-.22-.17h0l-.36-.22,0,0-.22-.15h0l-.35-.19h0l-.37-.17h0l-.36-.18h0l0-.36h0l.18-.19h0l.17-.19h0l.4-.51,0,0,.18-.21h0l.16-.2h0l.22-.33,0,0,.16-.21h0l.21-.34,0,0,.15-.21h0l.2-.34h0l.19-.36h0l.19-.37h0l.18-.38h0l.17-.37h0l.15-.36a.13.13,0,0,0,0-.14l.15-.4a.12.12,0,0,0,0-.14l.14-.4a.14.14,0,0,0,0-.16l.15-.56a.14.14,0,0,0,0-.16l.15-.74,0-.31.15-1.13,0-.48a6.91,6.91,0,0,0,.14-1q0-4.67,0-9.33a7,7,0,0,0-.13-1l0-.48.06-.89H370a4.43,4.43,0,0,0,2.26,0l.66,0,1.28-.15a.13.13,0,0,0,.15,0l.93-.16a.12.12,0,0,0,.15,0l.62-.15a.06.06,0,0,0,.1,0l.61-.17a.08.08,0,0,0,.12,0l.54-.17h0l.43-.16a.07.07,0,0,0,.11,0l.38-.16h0l.38-.18h0l.38-.19h0l.37-.2h0l.35,0h0l.18.2h0l.17.22,0,0,.23.34h0l.17.21,0,0,.22.33h0l.16.2h0l.17.21,0,0,.23.34h0l.17.21,0,0,.21.36h0l0,.53a.05.05,0,0,0,0,.09l-.4.25h-.45l-.56-.15h-.55l-.79.14-.06,0,0,0-.77.17-.07,0-.06,0-.93.17-.08,0-.07,0-1,.15-.29,0-1.29.16-.32,0-1.44.17h0a1.24,1.24,0,0,0-.14.39q0,2,0,4.09a1.2,1.2,0,0,0,.15.38h0a1.78,1.78,0,0,0,.42.1h6.4a2.22,2.22,0,0,0,.43-.09l.85,0,1.15-.15.28,0,.16.05-.11,2.63L380.8,172l-.48,0c-.47,0-.94-.12-1.41-.13-.77,0-.77,0-.77.79q0,4.71,0,9.42c0,.44.08.88.13,1.32l0,1,.15,1.13v0c-.79,0-1.57.09-2.36.1s-.64,0-.7-.74l0-.84c0-.47.13-.94.13-1.41q0-4.61,0-9.22c0-.5,0-1-.07-1.5-.53,0-1.05-.11-1.58-.11s-1,.09-1.55.14l0,1.19-.15,2,0,.47-.15,1,0,.3-.15.78a.12.12,0,0,0,0,.14l-.17.76a.07.07,0,0,0,0,.11l-.17.61h0l-.16.55a.09.09,0,0,0,0,.12l-.15.41a.1.1,0,0,0,0,.13l-.15.41a.07.07,0,0,0,0,.11l-.17.43h0l-.16.37a.06.06,0,0,0,0,.1Z"/><path class="cls-1" d="M281.41,165.17h2.52l1-.14.3,0c.3-.11.08-.22,0-.32h0l-.15-.22,0,0-.21-.36h0l.15-.54h0l.27-.15a.06.06,0,0,0,.1,0l.25-.14a.08.08,0,0,0,.11,0l.21-.14,0,0,.37-.2h0l.37-.2H287l.18.2,0,0,.21.36h0l.2.34h0l.15.22,0,0,.2.36h0l.2.36h0l.19.35h0l.15.26a.08.08,0,0,0,0,.11l.14.21,0,0,.2.37v0l.19.37h0l.19.37h0l.37.72a1.91,1.91,0,0,0,.15.41c.26.39.18.63-.26.83-.59.27-1.16.61-1.8.94-.31-.66-.59-1.28-.91-1.89a5.74,5.74,0,0,0-1.15-1.92v2c-1.15-.06-2.22-.14-3.29-.16a4.77,4.77,0,0,0-2.2.12c-.58.32-.89,1.16-1.3,1.78-.14.2-.24.43-.43.76,1.27,0,2.37,0,3.48,0,.59,0,1.19-.11,1.78-.17a2.66,2.66,0,0,0,.45,0c.42-.07.51.15.5.51s0,1,0,1.52-.22.54-.61.48-.83-.11-1.24-.17-.62.05-.59.52,0,1.08,0,1.61.14.61.57.56c.65-.06,1.31-.1,2-.17.4,0,.55.09.53.48s0,1,0,1.43-.05.65-.67.58-1.3-.12-2-.17c-.24,0-.42.06-.42.34,0,.94,0,1.87,0,3l2.37-2.16c.26.87.48,1.61.71,2.34a.65.65,0,0,1-.29.76c-.51.41-1,.86-1.47,1.3h0l-.18.17h0L283,183h0l-.2.18h0l-.2.19h0l-.2.19,0,0-.2.19,0,0-.2.2,0,0-.2.2,0,0-.2.19,0,0-.2.2,0,0-.2.2,0,0-.19.21,0,0-.2.2,0,0-.2.2,0,0-.34,0h0l-.19-.2h0l-.19-.21,0,0-.41-.51h0l-.16-.19h0l-.18-.2h0l-.18-.21,0,0-.19-.21,0,0-.24-.31h0l-.16-.19h0l0-.34,0,0,.53-.58h0l.16-.37c0-1.43,0-2.86.08-4.29,0-.31-.15-.42-.44-.41l-1.43,0-1,.14-.31,0-.7-.11q0-1.16,0-2.33l.88-.11.32,0a4.43,4.43,0,0,0,2.56,0c0-.74,0-1.47,0-2.21,0-.1-.15-.2-.24-.3l-1.49.15-.3,0c-.36,0-.63-.06-.57-.52a3,3,0,0,0,0-.87c0-.16-.19-.3-.3-.46l0,0-.22-.16h0l-.36-.19h0l-.37-.16,0,0h-.06l-.43-.15-.05,0H275l-.23-.33h0l.19-.19h0l.2-.19h0l.2-.19h0l.19-.19h0l.19-.2h0l.19-.2h0l.18-.19h0l.17-.19h0l.16-.18v0l.23-.32,0,0,.18-.21h0l.16-.2h0l.23-.33,0,0,.17-.21h0l.22-.35,0,0,.16-.22h0l.21-.35,0,0,.15-.22h0l.19-.34h0l.2-.36h0l.2-.37v0l.2-.37v0l.19-.38v0l.18-.38h0l.18-.38h0l.17-.37a.07.07,0,0,0,0-.1l.18-.43v0l.16-.38a.06.06,0,0,0,0-.1l.17-.44h0l.15-.37a.12.12,0,0,0,0-.14l.25-.21h0l.25.14a.1.1,0,0,0,.12,0l.41.19h0l.38.18h0l.37.18h0l.37.18h0l.37.17h0l.36.18h0l.36.35h0l0,.36h0l-.19.19h0l-.37.18h0l-.38.17h0l-.19.2h0l-.16.21h0l-.18.35a.06.06,0,0,0,0,.1l-.14.26a.08.08,0,0,0,0,.11l-.19.42v0l-.19.38v0Z"/><path class="cls-1" d="M357.61,179.2a.07.07,0,0,0,0-.11l.14-.43a.13.13,0,0,0,0-.15l.16-.57a.13.13,0,0,0,0-.15l.17-.75a.09.09,0,0,0,0-.12l.15-.77,0-.3.14-1,0-.48.14-1.68c0-1.25.06-2.49.06-3.74,0-1.63,0-3.26-.06-4.9l-.15-1.66,0-.32.1-.34,1.9,0,1.66-.15.32,0,1-.15.31,0,.61-.14.29,0,.57-.15a.14.14,0,0,0,.15,0l.44-.14a.06.06,0,0,0,.1,0l.55-.18h0l.54-.19h0l.42-.16a.1.1,0,0,0,.13,0l.35,0,0,0,.21.35h0l.16.26a.07.07,0,0,0,0,.1l.14.2,0,0,.2.36h0l.2.35h0l.15.26a.08.08,0,0,0,0,.11l.13.24a.07.07,0,0,0,0,.11l0,.7,0,0-.38.2h-.27l-.59-.17h-.94l-.07,0-.07,0-.94.16-.32,0-.93.15-.33,0-1.11.15-.32,0-1.32.15-.1,2.53a1.89,1.89,0,0,0,.54.17q1.75,0,3.49,0a6.07,6.07,0,0,0,.87-.14l.47,0,.93-.15a.05.05,0,0,0,.09,0l.06,1.07,0,.31a3.74,3.74,0,0,0-.13.69q0,3,0,5.91a3.78,3.78,0,0,0,.13.69l0,.48,0,.88h-.3l-1.13-.15-.67,0-4.5-.05s0,0-.06.06h0L361,177a.14.14,0,0,0,0,.16l-.16.74a.12.12,0,0,0,0,.15l-.15.57a.16.16,0,0,0,0,.16l-.16.56a.13.13,0,0,0,0,.15l-.17.58a.06.06,0,0,0,0,.1l-.15.43a.08.08,0,0,0,0,.12l-.15.42a.09.09,0,0,0,0,.12l-.15.42a.07.07,0,0,0,0,.11l-.17.43h0l-.15.36a.12.12,0,0,0,0,.14l-.17.41h0l-.16.36a.09.09,0,0,0,0,.12l-.18.42h0l-.17.38h0l-.18.37h0l-.35.16h0l-.38-.17h0l-.36-.16-.06,0h-.07l-.42-.16h0l-.54-.18,0,0h-.06l-.43-.14-.07,0h-.08l-.22-.35h0l.22-.34,0,0,.16-.21h0l.21-.35,0,0,.14-.2a.07.07,0,0,0,0-.1l.15-.27h0l.19-.35h0l.18-.36h0l.17-.35a.08.08,0,0,0,0-.11l.18-.43h0l.16-.38a.07.07,0,0,0,0-.11l.16-.43h0Zm3.75-7.71h-.06c0,.69,0,1.38,0,2.06,0,.35.09.49.44.49h3c.36,0,.46-.17.46-.5,0-1.38,0-2.75,0-4.13,0-.43-.22-.49-.56-.48-.9,0-1.8,0-2.69,0-.46,0-.56.19-.54.59C361.38,170.16,361.36,170.82,361.36,171.48Z"/><path class="cls-1" d="M304.46,182.63l.32,0,.92-.16a.14.14,0,0,0,.16,0l.62-.14.29,0,.54-.15h0l.61-.17a.07.07,0,0,0,.1,0l.55-.18h0l.44-.16a.06.06,0,0,0,.1,0l.54-.18h0l.38-.17h0l.38-.18h0l.37-.19h0l.37-.19h0l.37-.2h0l.35-.2h0l.22-.15,0,0,.35-.21h0l.22-.17,0,0,.35-.22h0l.21-.17,0,0,.33-.23h0l.19-.16h0l0-.22h0l-.23-.31,0,0-.16-.18h0l-.17-.19h0l-.18-.2,0,0-.18-.21,0,0-.23-.33h0l-.16-.2h0l-.18-.21,0,0-.23-.34h0l-.16-.21,0,0-.22-.33h0l-.15-.21h0l-.21-.33h0l-.15-.21h0l-.21-.34h0l-.15-.21,0,0-.21-.36h0l-.2-.34h0l-.15-.22,0,0-.2-.37h0l-.2-.37h0l-.19-.37h0a.59.59,0,0,0,0-.17h0l.2-.19,0,0,.42-.19a.09.09,0,0,0,.11,0l.21-.14,0,0,.37-.2h0l.36-.2h0l.35-.2h0l.21-.16,0,0,.35-.21h0l.34.23a.11.11,0,0,0,0,.13l.15.42a.09.09,0,0,0,0,.12l.15.4a.12.12,0,0,0,0,.14l.16.35h0l.17.37h0l.18.37h0l.19.36h0l.19.35h0l.15.22,0,0,.21.36h0l.17.22,0,0,.23.34h0l.17.21,0,0,.22.32v0l.15.18h0l.17.19h0l.18.2h0c.13.26.27.29.4,0h0l.17-.21h0l.22-.34,0,0,.17-.22h0l.22-.35,0,0,.16-.22h0l.21-.35v0l.14-.2a.08.08,0,0,0,0-.11l.15-.26h0l.19-.35h0l.18-.36h0l.18-.36h0l.16-.35a.09.09,0,0,0,0-.12l.18-.42h0l.16-.37a.09.09,0,0,0,0-.12l.15-.42a.09.09,0,0,0,0-.12l.14-.42a.11.11,0,0,0,0-.14l.52-.21h0l.37.19h0l.37.2h0l.37.2,0,0,.21.14a.07.07,0,0,0,.1,0l.27.15h0l.35.19h0l.36.19h0l.36.21,0,0,.2.19v0l.18.41v0l-.17.26h0l-.21.17,0,0-.52.22h0l-.21.16h0l-.19.2h0l-.15.19a.07.07,0,0,0,0,.1l-.14.26a.09.09,0,0,0,0,.12l-.2.41,0,0-.14.21a.07.07,0,0,0,0,.1l-.16.27h0l-.21.35,0,0-.16.21h0l-.22.34,0,0-.16.21h0l-.23.33,0,0-.18.21h0l-.17.2h0l-.16.19v0l-.24.32,0,0-.19.21,0,0-.18.2h0l-.17.2h0c-.19.2-.64.34-.18.71h0l.33.23,0,0,.22.17h0l.21.16h0l.34.21,0,0,.21.15h0l.34.2h0l.36.2h0l.37.2h0l.38.19h0l.38.18h0l.38.17h0l.37.16a.08.08,0,0,0,.11,0l.43.17h0l.54.19h0l.55.18h0l.55.16a.1.1,0,0,0,.13,0l.59.16a.09.09,0,0,0,.12,0l.59.15a.15.15,0,0,0,.16,0l.73.15.32,0,.94.15.58.09.69.29h0l-.17.18h0l-.18.17h0l-.18.18h0l-.18.18h0l-.18.19h0l-.17.18h0l-.16.18v0l-.23.32,0,0-.17.21h0l-.22.35,0,0-.14.21a.06.06,0,0,0,0,.09l-.16.27h0l-.53,0-.06,0h-.08l-.4-.14-.07,0h-.08l-.39-.14-.07,0h-.08l-.39-.15-.06,0H324l-.4-.15-.05,0h-.07l-.42-.16h0l-.54-.2h0l-.38-.16,0,0h-.06l-.43-.17h0l-.38-.17h0l-.35-.16-.05,0h-.07l-.41-.18h0l-.38-.18h0l-.37-.18h0l-.37-.18h0L319,183h0l-.37-.19h0l-.37-.2,0,0-.21-.14,0,0H318l-.26-.16h0l-.35-.21,0,0-.21-.15h0l-.34-.21h0l-.21-.16h0l-.33-.22,0,0-.21-.17h0l-.2-.16h0c-.17-.26-.35-.27-.53,0h0l-.2.17h0l-.21.18,0,0-.33.23h0l-.2.16h0l-.26.18a.07.07,0,0,0-.1.05l-.19.14h0l-.26.17a.07.07,0,0,0-.1,0l-.2.14h0l-.35.2h0l-.26.16h-.06l0,0-.21.14,0,0-.37.2h0l-.37.19h0l-.37.19h0l-.37.18h0l-.38.18h0l-.41.18h-.07l-.06,0-.35.16h0l-.4.16h-.08l-.07,0-.37.15h0l-.44.17h-.06l0,0-.42.16h-.06l-.05,0-.54.18h0l-.43.16h-.06l0,0-.54.18h0l-.57.17h-.08l-.07,0-.41.14H305l-.06,0-.53,0,0,0-.21-.36h0l-.2-.34h0l-.16-.21v0l-.22-.32v0l-.15-.19h0l-.17-.2h0l-.18-.2,0,0-.19-.21,0,0-.2-.2,0,0-.56-.56h0l0-.32.72,0Z"/><path class="cls-1" d="M240,164.45h.59l.33,0h0l.37.19h0l.37.19h0l.37.2h0l.37.19h0l.38.19,0,0,.22.14h0l.15.73h0l-.2.18h0l-.35.21h0l-.2.17h0l-.18.2h0l-.15.19a.07.07,0,0,0,0,.1l-.15.27h0l-.18.36h0l-.18.36h0l-.19.36h0l-.2.36h0l-.2.37,0,0-.15.22h0l-.2.34h0l-.21.36,0,0-.15.21h0l-.2.34h0l-.21.36,0,0-.16.22h0l-.22.35,0,0-.16.21h0l-.22.34,0,0-.16.21h0l-.22.34,0,0-.16.21h0c0,.12-.06.3,0,.36.41.43.84.83,1.27,1.24h0l.16.17h0l.17.17h0l.17.18h0l.18.18h0l.18.19h0l.18.19h0l.19.2h0l.19.2,0,0,.19.2,0,0,.19.2,0,0,.19.2,0,0,.59.68h0l.17.19h0l.18.19h0l.18.2h0l.19.2,0,0,.19.21,0,0,.41.5h0l.16.19h0l.17.19h0l.18.2v0l.19.21,0,0,.05.34h0l-1.31,1.4,0,0-.2.2,0,0-.2.2,0,0-.2.2,0,0-.19.2v0c-.22-.23-.46-.44-.66-.69-1.3-1.64-2.58-3.29-3.88-4.92a13.88,13.88,0,0,0-1-1l-.66.72a38,38,0,0,1-6.33,5.53.56.56,0,0,1-.89-.09c-.45-.47-1-.86-1.47-1.31a2,2,0,0,1-.29-.48,24,24,0,0,0,7.55-5.95c.26-.28.13-.47-.09-.67-.78-.74-1.53-1.51-2.33-2.23-1.37-1.24-2.77-2.45-4.14-3.67l1.8-1.88,6.68,6c.4-.66.8-1.23,1.1-1.84C238.53,167.69,239.28,166.07,240,164.45Z"/><path class="cls-1" d="M250.17,178.67a.13.13,0,0,0,.15,0l.74-.16a.15.15,0,0,0,.16,0l.56-.15a.14.14,0,0,0,.16,0l.42-.14a.07.07,0,0,0,.11,0l.2-.18c0-1.84,0-3.68,0-5.51,0-.8,0-1.59-.07-2.39a1.47,1.47,0,0,0-1.32,0l-.66,0-1.13.14h-.21q0-1.34-.05-2.67l0,0a.22.22,0,0,0,.16,0l.31,0,1.49.15c1.51.15,1.52.15,1.51-1.35s-.06-2.93-.09-4.39l-.14-1.49v-.26l.25-.2h0l.79.15a.14.14,0,0,0,.16,0l.92.16a.13.13,0,0,0,.15,0l.93.18h0l.37.18h0l0,.71v0l-.19.19h0l-.21.18,0,0-.16.21h0a2.34,2.34,0,0,0-.16.58q0,2.41,0,4.82c0,.12.12.23.18.35l1.8,0,1.29-.15h.32l0,2.67h-.26l-.94-.15-.51,0-1.4-.14c-.36,0-.45.18-.45.49,0,2.14,0,4.28,0,6.41,0,.46,0,.46.59.27a.12.12,0,0,0,.14,0l.36-.15h0l.41-.17a.11.11,0,0,0,.13,0l.26-.13a.06.06,0,0,0,.1,0l.36-.17h0l.36-.18h0l.36-.18h0l.36-.19h0l.34-.19h0l.35,0v.31l-.15,1.47,0,1-.54.4h0l-.59.18h-.07l-.06,0-.43.14h-.06l0,0-.55.17h0l-.58.18h-.08l-.07,0-.41.14h-.07l-.06,0-.42.15h-.07l-.05,0-.42.15h-.07l-.05,0-.42.15h-.07l-.05,0-.42.15h-.07l-.05,0-.41.15h-.07l-.06,0-.37.15h0l-.54.2h0l-.42.16h-.07l-.05,0-.37.16h0l-.42.17h-.07l-.05,0-.36.16h0l-.37.17h0l-.35-.17h0l-.18-.37h0l-.18-.38v0l-.19-.43a.08.08,0,0,0,0-.11l-.17-.36h0l-.17-.37h0l-.18-.38v0c-.14-.39.25-.36.41-.51l.29,0Z"/><path class="cls-1" d="M289.5,181.15a.06.06,0,0,0,.09,0l.27.15h0l.35.19h0l.36.2h0l.2.14a.08.08,0,0,0,.11,0l.25.14a.11.11,0,0,0,.13,0l.41.16h0l.54.18h0l.54.16a.13.13,0,0,0,.15,0l.57.15.31,0a13.89,13.89,0,0,0,1.58.15c1.18,0,2.36-.1,3.54-.15l.5,0,1.5-.15.48,0c.74,0,.74,0,.54.56h0l-.2.35h0l-.19.37h0l-.17.38h0l-.18.54a.07.07,0,0,0,0,.11l-.23.6h-1.86l-3.82-.15-.84,0-1.32-.15-.3,0L292,185l-.06,0h-.07l-.59-.18h0l-.37-.15-.05,0h-.07l-.41-.18h0l-.37-.19h0l-.37-.21,0,0-.22-.15h0l-.35-.21h0l-.21-.15h0l-.34-.2h0l-.37-.18h-.54l-.22.15,0,0-.34.23h0l-.19.18h0l-.18.19h0l-.16.19h0l-.23.32,0,0-.17.21h0l-.22.35,0,0-.16.22h0l-.21.35,0,0-.16.21h0l-.35,0h0l-.18-.21,0,0-.23-.33h0l-.16-.2h0l-.18-.21,0,0-.23-.34h0l-.17-.2h0L284,184l0,0-.23-.34h0l-.17-.21,0,0q0-.26,0-.52l0,0,.21-.18h0c.82-.49,1.62-1,2.46-1.46a.85.85,0,0,0,.54-.89c0-1.64,0-3.29,0-4.93,0-1.47,0-1.48-1.51-1.29-.39,0-.57,0-.56-.43s0-1,0-1.52c0-.34.16-.49.49-.49a6.83,6.83,0,0,0,3.78,0c.46-.1.65.08.54.55a.61.61,0,0,0,0,.17.13.13,0,0,0,0,.15,4.9,4.9,0,0,0-.16.86q0,3.52,0,7A2,2,0,0,0,289.5,181.15Z"/><path class="cls-1" d="M304.2,166.78l-.33,0c-.3,0-.58,0-.55-.46s0-1.11,0-1.67c0-.36.15-.46.48-.42a3.21,3.21,0,0,0,.44,0l.3,0a8.84,8.84,0,0,0,1.14.15c3.08,0,6.16,0,9.24,0a2.69,2.69,0,0,0,.43-.09l-.46-.3h0l-.21-.18h0l-.2-.18h0l-.19-.16h0l-.32-.24,0,0-.21-.18,0,0-.21-.18h0l-.2-.16h0l-.32-.23,0,0-.21-.18h0l-.2-.16h0l-.33-.23,0,0-.21-.17h0l-.2-.16h0l-.32-.23,0,0a.25.25,0,0,0,0-.14h0l.15-.21h0l.16-.17h0l.6-.67,0,0,.2-.2,0,0,.19-.2,0,0,.19-.2,0,0,.24-.19h.05l.4.21,0,0,.22.17h0l.2.16h0l.33.22,0,0,.21.17h0l.34.23,0,0,.22.18,0,0,.21.17h0l.34.23,0,0,.22.18,0,0,.2.17h0l.19.16h0l.32.23,0,0,.21.18h0l.2.17h0l.18.16h0l.31.23,0,0,.21.19,0,0,.2.19h0l0,.33,0,0-.19.21,0,0-.18.2h0l-.18.19h0l-.16.19h0l0,.33.44,0c2.55,0,5.1,0,7.66,0a8.22,8.22,0,0,0,1.13-.16l.33,0,.78-.14h0c0,.78.08,1.57.11,2.35,0,.43-.33.3-.56.35l-.32,0-.41-.17a4.35,4.35,0,0,0-.84-.17H305.62a4.59,4.59,0,0,0-.85.16Z"/><path class="cls-1" d="M288.55,122.74h-3.66l-.42-.14,0,0h-.06l-.26-.15h0l-.33-.23,0,0-.2-.2,0,0-.39-.54h0l-.18-.39a.14.14,0,0,0,0-.15v-3.22l0-.29.17-.43h0l.21-.36,0,0,.18-.21h0l.19-.19h0l.21-.18,0,0,.35-.22h0l.38-.17h0l4.13,0a.08.08,0,0,0,.12,0l.42.19,0,0,.21.16h0l.54.53h0l.16.2h0l.19.37h0l.18.78q0,1.19,0,2.38l-.17.78h0l-.18.37h0l-.22.34,0,0-.19.21,0,0-.2.19,0,0-.32.22h0l-.25.14H289l-.05,0Z"/><path class="cls-1" d="M304.77,166.6a4.59,4.59,0,0,1,.85-.16H325.5a4.35,4.35,0,0,1,.84.17l-1.43,0h-4.32l-.15,0,.14.14h0l0,.17-.74-.18-.17-.15c-1.13,0-2.25,0-3.38,0-1.75,0-3.5,0-5.25,0l-.23,0,.2.17v0l.21.16h0l.34.22,0,0,.21.16h0l.34.22,0,0,.22.17h0l.35.22,0,0,.21.17h0l.19.18h0l.17.23a.1.1,0,0,0,0,.13l0,.35,0,0-.19.2h0l-.41.18-.31,0-.21.13,0,0-.75.73,0,0-.2.2,0,0-.2.2,0,0-.2.2,0,0-.2.2,0,0-.2.2,0,0-.2.2,0,0-.87.77h0l-.21.16,0,0-.21.19,0,0-.5.42h0l-.18.16h0l-.19.17h0l-.21.18,0,0-.34.22h0l-.19.17h0l-.2.18h0l-.21.19,0,0-.51.4h0l-.21.16h-.14l-.2-.16h0l-.17-.17h0l-.17-.16h0l-.31-.24,0,0-.21-.18,0,0-.21-.17h0l-.2-.15h0l-.33-.21h0l-.36-.21,0,0-.21-.19,0,0s0-.1,0-.14l0,0,.34-.22h0l.22-.15,0,0,.36-.21h0l.34-.21h0l.21-.15h0l.33-.22h0l.2-.15h0l.21-.17,0,0,.32-.23h0l.19-.16h0l.2-.17h0l.2-.18,0,0,.21-.19,0,0,.2-.19,0,0,.7-.58h0l.19-.19h0l.18-.19h0l.17-.19h0l.16-.18h0l.24-.32,0,0,.18-.21,0,0,.21-.19,0,0,.19-.21,0,0,.17-.21h0l.14-.18a.07.07,0,0,0,.05-.1l.17-.26h0l.14-.19a.08.08,0,0,0,.06-.1l0-.25H306Z"/><polygon class="cls-1" points="296.14 161.58 296.14 161.59 296.15 161.59 296.14 161.58"/><path class="cls-1" d="M290.42,173.8v0h0Z"/><path class="cls-1" d="M297.75,167.7h0Z"/><path class="cls-1" d="M296.48,161.77h0Z"/><path class="cls-1" d="M300.64,175.77l-.32,0c-1,.05-2.05.12-3.08.14-.11,0-.31-.21-.31-.32,0-.67.06-1.33.1-2a2.36,2.36,0,0,1,1.68,0l.49,0,1,.14h.2q0-1.33,0-2.67h0l-1,.15-.48,0a2.74,2.74,0,0,1-1.87,0v-2.22a.09.09,0,0,1,0-.13l.15-.2.19-.18.17-.17.18-.2,0,0,0-.52-.41-.17-.47,0-.93-.15-.32,0-.92-.15a.12.12,0,0,1-.15,0c0-.11,0-.23,0-.34l.18-.33h4.14l1.29.15.33,0,.52-.27q0-1.09,0-2.17l-.7-.11-.31,0a4.43,4.43,0,0,1-.78.15c-1.16,0-2.33,0-3.49,0-.25,0-.54,0-.28-.39a.16.16,0,0,1,0-.17l.14-.37h0l.19-.36.18-.19.19-.16h0l.18-.16h0l.16-.18h0l0-.53-.34-.19-.42-.16a.09.09,0,0,1-.12,0l-.4-.15a.12.12,0,0,1-.14,0l-.37-.15h0l-.54-.19h0l-.54-.19h0l-.35.39a.13.13,0,0,1,0,.15l-.16.93a.12.12,0,0,1,0,.15l-.16.75a.12.12,0,0,1,0,.15l-.15.59a.09.09,0,0,1,0,.13c-.1.12-.2.35-.29.34-.65,0-1.29-.09-1.94-.15l-.29,0c-.71,0-.71,0-.72.73,0,.44,0,.89,0,1.33s.23.48.54.48a4.47,4.47,0,0,1,2-.16,25.74,25.74,0,0,1-1.63,4.11c-.12.22-.38.36-.58.54-.47.42,0,.83,0,1.24h0l.15.37a.13.13,0,0,1,0,.14l.15.4a.11.11,0,0,1,0,.13l.18.38.34,0,0,0,.06,0,.61-.15.07,0,.08,0c.86,0,1.72-.1,2.57-.12.1,0,.29.22.3.34a16.5,16.5,0,0,1,0,1.79.46.46,0,0,1-.33.31c-1.1,0-2.19-.09-3.29-.14l-.3,0c-.72,0-.72,0-.73.72,0,.48,0,1,0,1.43,0,.27.13.37.37.39l.29,0,1.51-.14h2.34s.07,0,.07,0q0,1.62-.06,3.24l0,.47.08.7H297l.08-1.06,0-.65q0-1.36,0-2.72l1.44,0,2,.15.32,0c.12-.1.34-.2.34-.3,0-.62,0-1.24,0-1.86C301.2,175.72,300.88,175.81,300.64,175.77ZM294,171.45c-.32,0-.65,0-1.13,0l1.33-3.75h.24c0,1.07.08,2.13.13,3.2C294.55,171.31,294.37,171.48,294,171.45Z"/><polygon class="cls-1" points="297.58 168.39 297.57 168.4 297.56 168.4 297.58 168.39"/><polygon class="cls-1" points="297.4 168.57 297.39 168.57 297.38 168.58 297.4 168.57"/><path class="cls-1" d="M326.13,171.15l.19.16.16.19a.26.26,0,0,0,0,.12l-.15.2-.17.19-.18.18-.18.18-.18.18-.59.67-.17.18-.63-.18L324,173l-.19-.17-.19-.17-.19-.17-.19-.17-.18-.18-.31-.23-.19-.16-.2-.16-.19-.17-.18-.18-.32-.23-.2-.16-.2-.16-.19-.17-.32-.23-.2-.15-.2-.16-.31-.24-.2-.15-.2-.16-.31-.23-.21-.15L319,169l-.32-.23-.2-.15v-.34l.17-.19.18-.18.41-.49.17-.19.17-.19.17-.19.16,0,.74.18h.17l.31.23.2.15.2.16.31.24.2.15.2.16.51.39.2.16.19.17.32.23.2.16.2.16.31.24.2.15.2.16.19.17.31.24.2.16.2.16.19.17Z"/><path class="cls-1" d="M185.77,144.05q0,8.49,0,17a3.73,3.73,0,0,1-.35,1.64c-.6,1.27-1.15,2.57-1.76,3.84a3.68,3.68,0,0,1-.82,1.14q-7.9,7-15.84,14L162.09,186c-1,.91-2.08,1.81-3.13,2.69a3.57,3.57,0,0,1-.92.53c-.72.3-1.48.5-2.18.83a8.82,8.82,0,0,1-4,.72c-3.86,0-7.73,0-11.59,0a4.25,4.25,0,0,1-1.39-.27c-1.18-.43-2.35-.89-3.51-1.38a3.62,3.62,0,0,1-1-.66q-6.26-5.8-12.5-11.63-5.29-4.93-10.58-9.86a3.8,3.8,0,0,1-1-1.38c-.49-1.19-1-2.36-1.54-3.54a3.89,3.89,0,0,1-.35-1.65q0-16.67,0-33.34a7,7,0,0,1,14-1.42,11.78,11.78,0,0,1,.14,1.79q0,14.92,0,29.83a1.9,1.9,0,0,0,.66,1.55q9.39,8.71,18.73,17.46a1.49,1.49,0,0,0,1.11.45q3.77,0,7.55,0a1.66,1.66,0,0,0,1.2-.46q4.17-3.7,8.36-7.36c3.58-3.14,7.16-6.28,10.76-9.39a2,2,0,0,0,.78-1.67q0-15.36,0-30.73a7,7,0,0,1,14-1.41,10.82,10.82,0,0,1,.13,1.61Q185.78,135.65,185.77,144.05Z"/></svg>