<svg id="图层_1" data-name="图层 1" xmlns="http://www.w3.org/2000/svg" viewBox="0 0 500 300"><defs><style>.cls-1{fill:#323333;}</style></defs><title>biter(8)</title><path class="cls-1" d="M131.25,114.35c-1.88.1-3.68.24-5.65.44l18.27-14.94,8.77,15.2c-1.88-.24-4-.43-6-.57l-1.41,9.94H129.82l1.41-10Zm6,68.4H121.87l.75-5.37H138"/><path class="cls-1" d="M109.31,182.75H93.94l.76-5.38h15.42Zm-7.06-58.56.55-3.84c-2.08.1-4.12.25-6.29.47l18.36-15.17,8.75,15.4c-1.74-.21-3.6-.39-5.4-.52l-.51,3.68H102.25Zm63.3,7.83H215l-1.62,11.3h-18l-5.22,36.15v-.07h0l-12.36,0,5.21-36.14H164.54v-.06m101.65.8a18.83,18.83,0,0,0,0-5.74c-.78-4.12-3.58-6.17-8.33-6.17H224.59c-3.21,0-5,1.22-5.36,3.68l-4.3,31.46a18.84,18.84,0,0,0-.16,5.65q1.26,6.53,11.25,6.53h35.14l1.56-11.16H230.16c-1.52,0-2.39-.61-2.63-1.88a6.12,6.12,0,0,1,0-1.88l.37-3.07h35.79L266.23,144h0Zm-12.78,2.3-.49,4h-23.3l.58-5a2,2,0,0,1,1.25-1.76,9.34,9.34,0,0,1,2.83-.29h15.89c1.88,0,2.94.76,3.23,2.31a3,3,0,0,1,0,.76h0Zm88.12-14.18-1.63,11.14H288.67a5.58,5.58,0,0,0-3.25.94,3.21,3.21,0,0,0-1.47,2.18l-4.85,33.07H266.75l5.83-40.42c.67-4.58,3.6-6.88,8.84-6.88H341.6Z"/><path class="cls-1" d="M320.76,156.34l-13,1.39-3,20.43c-.22,1.42,0,1.76,1.47,1.76H316.5l-.45,3h-17.7c-2.6.12-3.7-.88-3.25-3l4.5-30.49H309l-.7,4.71,12.94-1.33-.51,3.52h.06ZM381.15,183H363l-2.25-15.15H368l1.73,11.84h5.26c1.88,0,2.2-.4,2.42-1.88l1.72-11.64H360.45l.49-3.35H379.6l.24-1.58H389l-.24,1.58h.94l-.5,3.35h-.94l-2,13.51c-.46,3.11-2.22,3.28-5.11,3.33h.07Zm-48.91-33.53h-9.33l-4.52,30.51c-.44,2.11.63,3.11,3.25,3h17.68l.44-3H329.69q-2.38.35-1.69-1.77l3.26-22,12.24-1.58.49-3.34-12.24,1.41.45-3.17h0ZM348.44,183h7.37l1.36-9.17,1.21-.18.57-3.88-1.23.36,1.51-10.16h1.2l.51-3.35h-1.18l1-7.12h-7.36l-1.05,7.13h-1.74l.69-4.54-4.77.74L345.47,160h6.39L350.08,172l-6.68,1.77-.55,3.7,6.65-1.58-1,7.06h0Zm42.18-26.29-.5,3.35H361.37l.5-3.35H372l.34-2.29H362.21l.5-3.35h10.11l.24-1.58h9.32l-.24,1.58h9.33l-.5,3.35h-9.32l-.34,2.29h9.31Zm36.9,21.47c-.21,1.43.09,1.77,1.68,1.77h5l-.44,3H421.19c-2.59,0-3.56-.88-3.25-3l4.52-30.51h9.33l-4.27,28.74h0Zm-15.77-28.74H401.65l-12.54,33.53h10.11l12.54-33.5h0ZM82,177.88l1.5-10.42h8.77c2.41,0,4.1-.94,4.25-4.11l3.6-25c.63-2.45-.32-3.77-3.35-3.72H91l1.41-9.82H148q8,0,10.11,3c1.42,2,1.88,4.63,1.43,7.9l-.89,6.21c-.48,3.36-1.74,5.54-3.77,6.54a23.66,23.66,0,0,1-8.41,1.88v.18h.2a.62.62,0,0,0,.27,0q5.9.76,8,2.11c1.38.89,1.88,2.74,1.47,5.5l-1.25,8.77a13.37,13.37,0,0,1-3.7,7.85q-3,3.08-11,3.07H82Zm34.85-23L115,167.45h20.26a4.52,4.52,0,0,0,2.56-.54,3.52,3.52,0,0,0,1-2.43l.94-6.59c.18-1.25.08-2.07-.32-2.43a3.77,3.77,0,0,0-2.41-.53H116.85Zm3.07-21.32-1.85,12.57h20.27a4.71,4.71,0,0,0,2.58-.54,3.53,3.53,0,0,0,1-2.44l.94-6.46c.2-1.38.09-2.25-.29-2.6a3.77,3.77,0,0,0-2.41-.54H119.92Z"/><path class="cls-1" d="M344.16,132.16H350l.74-4.13h-5.8l-.74,4.13ZM359,128.48l1.35-7.41h16.79l.66-3.67H359.22a4.71,4.71,0,0,0-3.09,1.13,4.58,4.58,0,0,0-1.65,2.75l-1.25,7a3.15,3.15,0,0,0,.67,2.75,3.34,3.34,0,0,0,2.68,1.13h18.5l.66-3.67H359Zm39.82-11.09a3.31,3.31,0,0,1,2.68,1.13,3.07,3.07,0,0,1,.71,2.75l-1.26,7a4.61,4.61,0,0,1-1.7,2.75,4.71,4.71,0,0,1-3.09,1.13H381.67A3.36,3.36,0,0,1,379,131a3.15,3.15,0,0,1-.67-2.75l1.25-7a4.45,4.45,0,0,1,1.65-2.74,4.71,4.71,0,0,1,3.07-1.13H398.8ZM395,128.48l1.34-7.41H385.42l-1.33,7.41Zm34.85-11.09H405.39l-2.66,14.77h5.79l2-11.09H416l-2,11.08h5.83l2-11.09h5.52l-2,11.08h5.79l2-10.9a3.19,3.19,0,0,0-.66-2.76,3.32,3.32,0,0,0-2.67-1.13h0Z"/></svg>