<svg id="图层_1" data-name="图层 1" xmlns="http://www.w3.org/2000/svg" viewBox="0 0 500 300"><defs><style>.cls-1,.cls-2{fill:#323333;}.cls-2{opacity:0.3;}.cls-3{fill:#040000;isolation:isolate;}</style></defs><title>biying(8)</title><polygon class="cls-1" points="152 140.88 155.25 140.88 155.26 130.53 152 130.53 152 140.88"/><polygon class="cls-1" points="152 161.89 155.22 161.89 155.23 149.35 152 149.35 152 161.89"/><polygon class="cls-1" points="142.04 170.66 142.04 121.89 155.27 121.89 155.27 121.16 118.94 100.1 82.53 121.04 82.46 173.04 118.8 194.1 155.2 173.16 155.2 170.66 142.04 170.66"/><path class="cls-1" d="M154.54,98.8l-37.21,21.4-.07,53.14,37.13,21.52,37.21-21.4.07-53.14ZM179,170.66H142V121.89h35.76v8.63H152v10.36h23.69v8.47H152v12.54h27Z"/><polygon class="cls-2" points="152 140.88 155.25 140.88 155.26 130.53 152 130.53 152 140.88"/><polygon class="cls-3" points="142.04 170.66 142.04 121.89 155.27 121.89 155.27 121.16 135.54 109.73 117.33 120.2 117.26 173.34 136 184.2 155.2 173.16 155.2 170.66 142.04 170.66"/><polygon class="cls-2" points="152 161.89 155.22 161.89 155.23 149.35 152 149.35 152 161.89"/><path class="cls-1" d="M240.47,122.15v8.07H227.09v40.37H216.91V130.22H203.52v-8.07Z"/><path class="cls-1" d="M268.92,121.27q1.82,0,3.71.18t3.67.5q1.78.32,3.42.79a17.51,17.51,0,0,1,2.95,1.12l-1.46,7.44a31.87,31.87,0,0,0-5.17-1.42,29.61,29.61,0,0,0-5.6-.55q-8.29,0-12.69,4.31t-4.4,12.71q0,8.4,4.4,12.71t12.69,4.31a29.61,29.61,0,0,0,5.6-.55,31.87,31.87,0,0,0,5.17-1.42l1.46,7.44a17.51,17.51,0,0,1-2.95,1.12q-1.64.47-3.42.79t-3.67.5q-1.89.18-3.71.18a30,30,0,0,1-11.06-1.89,22.81,22.81,0,0,1-8.07-5.24,21.93,21.93,0,0,1-4.95-7.93,31,31,0,0,1,0-20.08,21.94,21.94,0,0,1,4.95-7.93,22.84,22.84,0,0,1,8.07-5.24A30,30,0,0,1,268.92,121.27Z"/><path class="cls-1" d="M336.64,157.72l8.58-35.57h10.33L342,170.59H331.69l-10.55-38-10.55,38H300.27l-13.53-48.45h10.33l8.58,35.57,9.75-35.57h11.49Z"/><path class="cls-1" d="M360.64,124.84a5.67,5.67,0,0,1,1.6-4.07,5.48,5.48,0,0,1,4.15-1.67,5.76,5.76,0,0,1,4.18,9.78,5.54,5.54,0,0,1-4.18,1.71,5.42,5.42,0,0,1-4.15-1.71A5.71,5.71,0,0,1,360.64,124.84Zm.8,45.75V135.17h10v35.43Z"/><path class="cls-1" d="M380.87,170.59V135.17h9.6V140a10.94,10.94,0,0,1,4.44-4.18,13,13,0,0,1,5.89-1.35,11.23,11.23,0,0,1,5.86,1.45,11.72,11.72,0,0,1,4,3.89,18.06,18.06,0,0,1,2.25,5.67,30.64,30.64,0,0,1,.73,6.73v18.4h-10V152.12q0-4.8-1.49-7.27a5.29,5.29,0,0,0-4.91-2.47,6.9,6.9,0,0,0-3.78,1,9.62,9.62,0,0,0-2.62,2.4v24.81Z"/></svg>