<svg id="图层_1" data-name="图层 1" xmlns="http://www.w3.org/2000/svg" viewBox="0 0 500 300"><defs><style>.cls-1,.cls-2{fill:#323333;}.cls-2{isolation:isolate;}</style></defs><title>haifengteng(8)</title><path class="cls-1" d="M270,99.22l-10.46,19.13a2.81,2.81,0,0,0-.12.61H261c11.76,0,23.52,0,35.28,0a3,3,0,0,0,2.65-1.26c7.43-9.5,17.15-15.12,29.15-16.31a58.42,58.42,0,0,1,34.25,7.06c.38.21.73.46,1.1.69l.49.32-3.56,5.24c-3.57-1.52-6.92-3.23-10.45-4.4-11.6-3.84-23.1-3.5-34.32,1.55a27.49,27.49,0,0,0-9.33,7h13.13c-.37.73-.6,1.19-.84,1.64q-9.14,16.81-18.31,33.61a2.94,2.94,0,0,0-.19,2.71c4.28,11.32,12.62,17.86,24.29,20.13s22.68.3,33.27-4.76c.86-.41,1.67-.92,2.55-1.42a6.93,6.93,0,0,1,.48.58l3.32,5.06c-15.46,8.39-31.41,10.53-48.43,4.95v24.07H232L242.55,186h-60.2l2.13-4.14c-8.68,3.42-17.4,3.62-26.19,2.36s-16.9-4.46-23.3-11.38l5.55-4.11a27.88,27.88,0,0,0,13.4,7.83c9,2.21,18,2.52,26.84-.87,7.47-2.87,13.87-11.49,13-20.74A18.81,18.81,0,0,0,188,143.27a50.41,50.41,0,0,0-16.59-10.83c-3-1.26-6.1-2.3-9.33-3.51l1.68-6.5c1.82.6,3.53,1.1,5.19,1.71,7.37,2.68,14.36,6.09,20.46,11.11,5.26,4.33,9.21,9.55,10.79,16.33.05.22.15.42.32.92l14.38-26.4H187.33c0-.69,0-1.2,0-1.71,0-3.71-.07-7.43,0-11.13a2.33,2.33,0,0,0-1.61-2.5,37.61,37.61,0,0,0-13.52-3.34c-5.95-.42-11.87-.31-17.53,1.86-8.37,3.21-13.17,9.33-14.12,18.24a16.67,16.67,0,0,0,3.78,12.27c4.14,5.29,9.63,8.87,15.55,11.74,3.54,1.71,7.32,2.92,11,4.36.44.17.89.31,1.41.49l-1.71,6.55c-1.41-.45-2.73-.83-4-1.28-8.74-3.08-17-7-23.84-13.47-6.1-5.77-9.67-12.71-9.1-21.31.63-9.53,8.19-22.12,21.37-25a55.37,55.37,0,0,1,30.59,1.71c.41.14.82.28,1.23.4a2,2,0,0,0,.49,0V99.22Zm-26.93,99.49h65.45c0-3.57,0-7,0-10.49,0-2.94.58-2.72-2.65-2.72l-28.77,0c-.55,0-1.09-.05-1.83-.09l32.53-59.62c-.61-.05-.94-.11-1.26-.11q-24.94,0-49.88,0a1.76,1.76,0,0,0-1.77,1.11c-1.92,3.61-3.9,7.19-5.85,10.79-.19.36-.33.75-.6,1.37H275.6ZM226,165.84l32.53-59.62H194.24v13.07h32.1L193.84,179c.49,0,.73.09,1,.09q25.23,0,50.46,0a2.1,2.1,0,0,0,1.52-.93c2.11-3.73,4.14-7.5,6.18-11.27a7,7,0,0,0,.34-1.05Zm38.45-20a6.94,6.94,0,0,0-.82-.13c-6,0-12,0-18.05,0a2.16,2.16,0,0,0-1.45,1.05c-2,3.6-4,7.25-5.94,10.89-.21.39-.36.81-.63,1.4,5.33,0,10.4-.24,15.43.09,3.25.21,5.07-.74,6.35-3.76C260.67,152.21,262.6,149.2,264.4,145.88ZM287,178.69h22.82A44.25,44.25,0,0,1,295.49,163Z"/><path class="cls-2" d="M352.53,123.06a21.18,21.18,0,0,1,3.29,9.23,2.37,2.37,0,0,1-.31,1.24c-.56,1-.23,1.63.88,2.09a5.61,5.61,0,0,0,1-.81c1-1.22,2.4-1.39,3.81-1.65a5.49,5.49,0,0,0,1.59-1c1.64,3,2.41,6,.71,9.3-.45.88-.23,2.09-.36,3.14a1.8,1.8,0,0,1-.38,1c-3.3,3.5-6.76,6.76-11.73,7.72-.77.15-1.07.6-.75,1.36a9.8,9.8,0,0,0,1.06,2.35c1.61,2,3.35,4,5,6a2.34,2.34,0,0,1,.48,1.52c-3.07-2.28-5.16-5.37-7.22-8.15a63.7,63.7,0,0,1-6.07,5.16c-2.25,1.5-5,1.51-7.49,1.21l-1.75-1.5,2.08-3.23-.18-.52c-1.44-.16-2.87-.37-4.32-.45a2.94,2.94,0,0,1-2.13-.87c-2-1.94-4.36-3.59-6.54-5.39-.44-.36-1.54-.38-.88-1.5.1-.17-.5-.73-.85-1.23.63-.11,1.21-.25,1.8-.32,1.24-.16,2.28-.46,2.24-2.06,0-.24.53-.64.87-.73,1.69-.48,3.41-.88,5.39-1.38-.77-.87-1.55-1.62-2.19-2.48a23.15,23.15,0,0,1-2-3.14c-.19-.36.08-.94.08-1.42a3.81,3.81,0,0,0-.13-1.33c-.44-1.16-.76-2.23.15-3.38.3-.38.12-1.11.22-1.67.13-.74.39-1.46.48-2.2a7.7,7.7,0,0,0,0-2.21c-.27-1.56-.67-3.1-1-4.82a4.86,4.86,0,0,1,1.24.31c2,1.19,4.46,1.67,6.16,3.5.29.32,1.08.17,1.93.28l1.81,2.63,1.62-1.3c.33.46.69.89,1,1.36.58.9,1.05,1.84,2.46,1.2.24-.11,1,.44,1.23.85a11.12,11.12,0,0,1,.73,2.16l2-.28c.71-1.27,1.49-2.71,2.31-4.12S351.53,124.73,352.53,123.06Zm-3,31.89c.86-1.44-.28-2.3-.78-3.19-.6-1.07-.49-1.62.5-2.35a37.23,37.23,0,0,0,8.45-8.24c.32-.45.56-1,.83-1.44l-.3-.2a33.59,33.59,0,0,1-10.68,9.71c-1.48-1.62-2.09-3.3-1.1-5.41s1.68-4.08,2.52-6.12c.53-1.28,1.06-2.56,1.59-3.85l-.45-.19-5.25,11.14-9.63-13.6-.49.33,7.9,11.65-5.94-1.76-.15.46,5.65,1.92c.4.14,1,.2,1.14.49,1.25,2,2.43,4.09,3.73,6.31a49.58,49.58,0,0,1-16.49-.12,3.49,3.49,0,0,0,1.33.6,40.73,40.73,0,0,0,12.35.82c2.3-.12,4.18,0,4.85,2.66C349.07,154.68,349.24,154.75,349.49,155Z"/><path class="cls-1" d="M364.8,192.66v12.68h-3v-7.48l-.36-.2L359,200.37c-1.16,1.32-1.15,1.32-2.33-.05l-2.5-2.89v7.87H351V192.68c1.41-.33,2.66-.46,3.69,1,.9,1.24,2,2.34,3.17,3.68a41.31,41.31,0,0,0,2.91-3.38C361.83,192.48,363.11,192.23,364.8,192.66Z"/><path class="cls-1" d="M342.56,192.37c4.69,0,7.88,3.34,7.29,7.65a5.2,5.2,0,0,1-.23,1c-1.17,3.43-5,5.32-9,4.43a6.62,6.62,0,0,1-5.48-7.33C335.58,194.77,338.69,192.36,342.56,192.37Zm-4.13,6.52a3.85,3.85,0,0,0,4,4.1,4,4,0,1,0,.2-8A3.87,3.87,0,0,0,338.43,198.89Z"/><path class="cls-1" d="M334.21,195.68a35.05,35.05,0,0,0-5.76-.43,3.57,3.57,0,0,0-3.28,3.75,3.6,3.6,0,0,0,3.43,3.77,33.79,33.79,0,0,0,5.76-.66c.44,2.11.22,2.6-2.15,3.13a13.85,13.85,0,0,1-4,.32,6.54,6.54,0,0,1-6.37-6.41,6.79,6.79,0,0,1,6.44-6.71,13.32,13.32,0,0,1,3.58.16C334.38,193.05,334.55,193.39,334.21,195.68Z"/><path class="cls-1" d="M320.09,202.16c.43.62,1.22,1.26,1.2,1.86a2.26,2.26,0,0,1-1.47,1.52,1.31,1.31,0,0,1-1.63-1.48c.08-.67.78-1.26,1.21-1.89Z"/></svg>