<svg id="图层_1" data-name="图层 1" xmlns="http://www.w3.org/2000/svg" viewBox="0 0 500 300"><defs><style>.cls-1{fill:#323333;}</style></defs><title>lianhang(8)</title><path id="_复合路径_" data-name=" 复合路径 " class="cls-1" d="M167.4,96.5c-27.8,0-50.4,23-50.4,51.4s22.6,51.5,50.4,51.5,50.4-23,50.4-51.4S195.2,96.5,167.4,96.5Zm4.6,60.2a6.82,6.82,0,0,1,.3,9.7,7.4,7.4,0,0,1-4.8,2.2,6.44,6.44,0,0,1-4.9-2.2,13.16,13.16,0,0,0-17.2,0c-.1.1-.2.3-.4.4a6.71,6.71,0,0,1-4.5,1.8,6.27,6.27,0,0,1-4.5-1.8,9,9,0,0,1-.9-1l-.2-.2a2.09,2.09,0,0,0-.4-.6,6.12,6.12,0,0,1-.5-1.2,6.45,6.45,0,0,1-.3-2h0a6.93,6.93,0,0,1,.3-2,6.12,6.12,0,0,1,.5-1.2,2.09,2.09,0,0,1,.4-.6l.2-.2a1,1,0,0,1,.4-.5l.6-.6h0a13.68,13.68,0,0,0,0-17.1,6.67,6.67,0,1,1,9.4-.8l-.6.6a13.59,13.59,0,0,0,0,17.4l.4.4.1.1a12.81,12.81,0,0,0,8.4,3.1,13,13,0,0,0,8.4-3.1c.2-.3.5-.5.7-.8h0a13.68,13.68,0,0,0,0-17.1,6.67,6.67,0,1,1,9.4-.8l-.6.6a13.17,13.17,0,0,0-3.2,8.7A15.84,15.84,0,0,0,172,156.7Zm8.9-1.9a6.85,6.85,0,1,1,6.7-7v.1a6.81,6.81,0,0,1-6.7,6.9Zm18,1.9.4.4c.1.2.3.3.4.5l.2.2a2.09,2.09,0,0,0,.4.6,6.12,6.12,0,0,1,.5,1.2,6.45,6.45,0,0,1,.3,2h0a6.93,6.93,0,0,1-.3,2,6.12,6.12,0,0,1-.5,1.2,2.09,2.09,0,0,1-.4.6l-.2.2a9,9,0,0,1-.9,1,6.71,6.71,0,0,1-4.5,1.8,6.27,6.27,0,0,1-4.5-1.8,9,9,0,0,1-.9-1l-.2-.2a2.09,2.09,0,0,0-.4-.6,6.12,6.12,0,0,1-.5-1.2,6.45,6.45,0,0,1-.3-2h0a6.93,6.93,0,0,1,.3-2,6.12,6.12,0,0,1,.5-1.2,2.09,2.09,0,0,1,.4-.6l.2-.2a1,1,0,0,1,.4-.5l.6-.6a13.45,13.45,0,0,0,3-8.6,13.65,13.65,0,0,0-3-8.6,6.67,6.67,0,1,1,9.4-.8l-.6.6a13.17,13.17,0,0,0-3.2,8.7,14.59,14.59,0,0,0,3.4,8.9Z"/><g id="_编组_2" data-name=" 编组 2"><g id="_编组_3" data-name=" 编组 3"><rect id="_路径_" data-name=" 路径 " class="cls-1" x="332.6" y="106.6" width="42.4" height="6.7"/><path id="_路径_2" data-name=" 路径 2" class="cls-1" d="M332.6,126.9h31.2v32.9H332.6v6.7h34.5a3.33,3.33,0,0,0,3.3-3.3h0V127H375v-6.7H332.6v6.6Z"/><polygon id="_路径_3" data-name=" 路径 3" class="cls-1" points="311.2 126.9 317 126.9 317 166.6 323.5 166.6 323.5 126.9 329.3 126.9 329.3 120.2 311.2 120.2 311.2 126.9"/><path id="_路径_4" data-name=" 路径 4" class="cls-1" d="M322.7,109.1H311.2v6.7H326a3.33,3.33,0,0,0,3.3-3.3h0V103h-6.6Z"/><path id="_路径_5" data-name=" 路径 5" class="cls-1" d="M291.9,150.7h11.9V144H291.9v-7.6h11.9v-6.7H291.9v-9.1h-6.6v9.1h-7.2l4.8-13.8h20.9v-6.7H285.3l2.1-6h-7l-2.1,6h-7.5v6.7H276l-5.6,16a3.23,3.23,0,0,0,.4,3,3.19,3.19,0,0,0,2.7,1.4h11.8V144H270.7v6.7h14.6v9.2H267.4V124.7h-6.6v38.6a3.41,3.41,0,0,0,3.3,3.4h40.5V160H291.9v-9.3Z"/><rect id="_路径_6" data-name=" 路径 6" class="cls-1" x="260.8" y="109.1" width="6.6" height="11.2"/><path id="_路径_7" data-name=" 路径 7" class="cls-1" d="M240.9,126.9h4.2V137h-4.2v6.7h4.2v19.4a3.41,3.41,0,0,0,3.3,3.4h9v-6.7h-5.8V143.7h5.8V137h-5.8V127h5.8v-6.7H240.9v6.6Z"/><path id="_路径_8" data-name=" 路径 8" class="cls-1" d="M251,103.1h-7l-2.9,8.2a3.23,3.23,0,0,0,.4,3,3.19,3.19,0,0,0,2.7,1.4h13.3V109h-8.6Z"/></g><g id="_编组_4" data-name=" 编组 4"><path id="_路径_9" data-name=" 路径 9" class="cls-1" d="M243.9,192.7V178.3h3.6v11.6h6.4v2.9l-10-.1Z"/><path id="_路径_10" data-name=" 路径 10" class="cls-1" d="M279.3,192.7v-5.8h-5.2v5.8h-3.6V178.3h3.6V184h5.2v-5.7h3.6v14.4Z"/><path id="_路径_11" data-name=" 路径 11" class="cls-1" d="M303.8,189.8l-.9,2.8h-3.8l4.9-14.4h4.8l4.9,14.4H310l-.9-2.8-.9-2.7-1.8-6-1.8,6Z"/><path id="_路径_12" data-name=" 路径 12" class="cls-1" d="M333.5,183.2v9.5h-3.4V178.3h4.4l5.3,10v-10h3.5v14.4h-4.5Z"/><path id="_路径_13" data-name=" 路径 13" class="cls-1" d="M366.4,181a36.89,36.89,0,0,1,5.6.4v-2.9a50.88,50.88,0,0,0-5.6-.4c-3.9,0-5.9,1.8-5.9,4.4v6c0,2.6,2,4.4,5.9,4.4a21.49,21.49,0,0,0,5.6-.7v-6.8h-3.4v4.4a7.94,7.94,0,0,1-2.2.1c-1.8,0-2.3-.9-2.3-2v-5C364.1,181.8,364.6,181,366.4,181Z"/></g></g></svg>