<svg xmlns="http://www.w3.org/2000/svg" viewBox="0 0 88.85 39.23"><defs><style>.cls-1{fill:#fff;}</style></defs><title>media_jpm</title><g id="图层_2" data-name="图层 2"><g id="图层_1-2" data-name="图层 1"><path class="cls-1" d="M23.18,39.23V30.1H15A15,15,0,1,1,15,0H54.68a15,15,0,1,1,0,30.1H36.09ZM15,3.06a12,12,0,1,0,0,24H26.24v6.28L35.12,27H54.68a12,12,0,0,0,0-24Z"/><path class="cls-1" d="M60.09,22.33c-.94,0-1.48-.61-1.48-1.67V12.39a2,2,0,0,0-2.07-1.82,2.92,2.92,0,0,0-2,.64c-.72.59-1.09,1.12-1.09,1.55v7.9c0,1.06-.54,1.67-1.48,1.67s-1.49-.61-1.49-1.67v-7.9a2.54,2.54,0,0,0-.85-1.51,2,2,0,0,0-1.5-.68,2.82,2.82,0,0,0-2.09.87c-.84.85-1,1.37-1,1.66v7.57c0,1.51-1,1.67-1.42,1.67-1,0-1.52-.61-1.52-1.67V9.3c0-1.06.53-1.67,1.45-1.67a1.41,1.41,0,0,1,1,.4,1.59,1.59,0,0,1,.41.82,4.79,4.79,0,0,1,7,.66,5.85,5.85,0,0,1,4.52-1.88A5,5,0,0,1,60,9a4.43,4.43,0,0,1,1.53,3.37v8.27C61.55,21.72,61,22.33,60.09,22.33Z"/><path class="cls-1" d="M14.38,22.85a7.27,7.27,0,0,1-7.27-7.27,1.53,1.53,0,0,1,3.06,0,4.21,4.21,0,1,0,8.41,0V2.68a1.53,1.53,0,1,1,3.06,0V15.59A7.27,7.27,0,0,1,14.38,22.85Z"/><path class="cls-1" d="M32.26,22.85a8.7,8.7,0,1,1,8.7-8.7A8.71,8.71,0,0,1,32.26,22.85Zm0-14.34a5.64,5.64,0,1,0,5.64,5.64A5.65,5.65,0,0,0,32.26,8.51Z"/><path class="cls-1" d="M25.09,36.62a1.53,1.53,0,0,1-1.53-1.53V14.15a1.53,1.53,0,1,1,3.06,0V35.09A1.53,1.53,0,0,1,25.09,36.62Z"/><circle class="cls-1" cx="33.41" cy="16.13" r="1.57"/><circle class="cls-1" cx="72.32" cy="21.95" r="0.81"/><path class="cls-1" d="M80.78,23.75h-3a3.3,3.3,0,1,1,0-6.6h3.06a.57.57,0,0,1,0,1.15H77.77a2.15,2.15,0,1,0,0,4.3h3a.57.57,0,0,1,0,1.15Z"/><path class="cls-1" d="M88.28,23.92a.57.57,0,0,1-.57-.57V20.28a2.15,2.15,0,0,0-4.3,0v3a.57.57,0,0,1-1.15,0v-3a3.3,3.3,0,1,1,6.6,0v3.06A.57.57,0,0,1,88.28,23.92Z"/></g></g></svg>