<?xml version="1.0" encoding="utf-8"?>
<!-- Generator: Adobe Illustrator 21.1.0, SVG Export Plug-In . SVG Version: 6.00 Build 0)  -->
<svg version="1.1" id="图层_1" xmlns="http://www.w3.org/2000/svg" xmlns:xlink="http://www.w3.org/1999/xlink" x="0px" y="0px"
	 viewBox="0 0 103 31.1" style="enable-background:new 0 0 103 31.1;" xml:space="preserve">
<style type="text/css">
	.st0{fill:#FFFFFF;}
	.st1{fill:none;}
</style>
<title>media_8btc_cn</title>
<g id="ARC">
	<g id="_编组_">
		<path class="st0" d="M77.9,10.1h-4.8c1.4-1.7,3.2-3,5.2-3.8L78,7h1.5l0.8-1.6c0.2-0.4,0.6-0.7,1.1-0.7h3.4l-4.8,9.6
			c0,0,0,0.1,0,0.2h13.5l0.8-1.5H82.3l1.2-2.3c0.2-0.4,0.6-0.7,1.1-0.7h5.1l0.8-1.5h-5l1.2-2.4c0.2-0.4,0.6-0.7,1.1-0.7H92l0.4-0.8
			C92.6,4.3,93,4,93.5,4h3.3h0.1l-0.7,1.5h5.1l-1.2,2.3c-0.2,0.4-0.6,0.7-1.1,0.7h-4.3L94,10h8.5l-1.2,2.3c-0.2,0.4-0.6,0.7-1.1,0.7
			h-1.8l-0.8,1.5h4.2l-1.2,2.3c-0.2,0.4-0.6,0.7-1.1,0.7h-3.5l-4.2,8.4c-0.2,0.4-0.6,0.7-1.1,0.7H79c-0.1,0-0.1-0.1-0.1-0.1
			c0,0,0,0,0,0v-2.6c0-0.2,0-0.4,0.1-0.6l1.8-3.6c0.2-0.4,0.6-0.7,1.1-0.7h6.3L86,21.2c-0.5,0.5-1.1,0.7-1.8,0.7h-0.4l-0.6,1.1
			c0,0,0,0.1,0,0.2h5c0.5,0,0.9-0.3,1.1-0.7l2.5-5H78.9c-0.3,0-0.6,0.2-0.7,0.4l-4,7.9c-0.2,0.4-0.6,0.7-1.1,0.7H60.2
			c-0.1,0-0.1-0.1-0.1-0.1v-2.6c0-0.2,0-0.4,0.1-0.6L65.3,13l0,0l3.8-7.6c0.2-0.4,0.6-0.7,1.1-0.7h3.5l-4.1,8.3h5.7L73.4,15
			c-0.9,0.9-2.2,1.5-3.6,1.5h-2l-3.3,6.6c0,0,0,0.1,0,0.2h5.9c0.5,0,0.9-0.3,1.1-0.7l4.6-9L77.9,10.1z"/>
		<path class="st0" d="M65.4,13.1L63.4,15c-0.9,0.9-2.2,1.5-3.6,1.5h-1.3l-4.8,9.5c-0.2,0.4-0.6,0.7-1.1,0.7H30.6
			c-0.1,0-0.1,0-0.1-0.1c0,0,0,0,0,0V15.6c0-0.2,0-0.4,0.1-0.6l5.2-10.4C36,4.3,36.4,4,36.9,4h19.9h0.1c0.1,0.1,0.2,0.2,0.1,0.3
			l-6.4,12.9c-0.2,0.4-0.6,0.7-1.1,0.7h-14c-0.4,0-0.8,0.3-0.8,0.8c0,0,0,0,0,0v4.4c0,0.1,0.1,0.1,0.1,0.1h15.4
			c0.5,0,0.9-0.3,1.1-0.7l8.6-17.1c0.2-0.4,0.6-0.7,1.1-0.7h3.4l-4.1,8.3H65.4L65.4,13.1z M48.1,13.9L51.5,7h-3.4
			c-0.5,0-0.9,0.3-1.1,0.7l-3.5,6.9H47C47.4,14.6,47.9,14.3,48.1,13.9L48.1,13.9z M39.6,13.9L43,7h-3.4c-0.5,0-0.9,0.3-1.1,0.7
			l-3.5,6.9h3.4C39,14.6,39.4,14.3,39.6,13.9L39.6,13.9z"/>
		<line class="st1" x1="64.4" y1="4.8" x2="60.3" y2="13.1"/>
		<line class="st1" x1="58.6" y1="16.4" x2="53.9" y2="25.9"/>
		<path class="st0" d="M52.8,26.7c0.5,0,0.9-0.3,1.1-0.7"/>
		<line class="st1" x1="59.9" y1="5.5" x2="51.3" y2="22.5"/>
		<path class="st0" d="M50.2,23.2c0.5,0,0.9-0.3,1.1-0.7"/>
		<line class="st1" x1="69.2" y1="5.5" x2="65.4" y2="13"/>
		<polyline class="st0" points="65.4,13 65.4,13.1 60.2,23.3 		"/>
		<line class="st1" x1="73.7" y1="4.8" x2="69.6" y2="13.1"/>
		<line class="st1" x1="67.9" y1="16.4" x2="64.6" y2="23.1"/>
		<path class="st0" d="M64.6,23.1c0,0,0,0.1,0,0.2h0.1"/>
		<line class="st1" x1="49.5" y1="18" x2="35.5" y2="18"/>
		<line class="st1" x1="50.6" y1="17.3" x2="57.1" y2="4.4"/>
		<path class="st0" d="M49.5,18c0.5,0,0.9-0.3,1.1-0.7"/>
		<line class="st1" x1="47" y1="14.6" x2="43.5" y2="14.6"/>
		<line class="st1" x1="38.5" y1="14.6" x2="35.1" y2="14.6"/>
		<line class="st1" x1="51.5" y1="7" x2="48.1" y2="13.9"/>
		<path class="st0" d="M47,14.6c0.5,0,0.9-0.3,1.1-0.7"/>
		<line class="st1" x1="51.5" y1="7" x2="48.1" y2="7"/>
		<path class="st0" d="M48.1,7c-0.5,0-0.9,0.3-1.1,0.7"/>
		<line class="st1" x1="46.9" y1="7.7" x2="43.5" y2="14.6"/>
		<line class="st1" x1="43.1" y1="7" x2="39.7" y2="13.9"/>
		<path class="st0" d="M38.5,14.6c0.5,0,0.9-0.3,1.1-0.7"/>
		<line class="st1" x1="35.1" y1="14.6" x2="38.5" y2="7.7"/>
		<path class="st0" d="M39.6,7c-0.5,0-0.9,0.3-1.1,0.7"/>
		<line class="st1" x1="39.6" y1="7" x2="43.1" y2="7"/>
		<line class="st1" x1="56.8" y1="4" x2="36.9" y2="4"/>
		<path class="st0" d="M57.1,4.4c0.1-0.1,0-0.3-0.1-0.3h-0.1"/>
		<path class="st0" d="M36.9,4c-0.5,0-0.9,0.3-1.1,0.7"/>
		<line class="st1" x1="35.8" y1="4.7" x2="30.6" y2="15.1"/>
		<line class="st1" x1="50.2" y1="23.2" x2="34.8" y2="23.2"/>
		<line class="st1" x1="49.3" y1="26.6" x2="30.6" y2="26.6"/>
		<path class="st0" d="M30.5,26.5c0,0.1,0,0.1,0.1,0.1c0,0,0,0,0,0"/>
		<line class="st1" x1="30.5" y1="26.5" x2="30.5" y2="15.6"/>
		<path class="st0" d="M30.6,15.1c-0.1,0.2-0.1,0.4-0.1,0.6"/>
		<line class="st1" x1="34.7" y1="18.7" x2="34.7" y2="23.1"/>
		<path class="st0" d="M35.5,18c-0.4,0-0.8,0.3-0.8,0.8c0,0,0,0,0,0"/>
		<path class="st0" d="M34.7,23.1c0,0.1,0.1,0.1,0.1,0.1"/>
		<line class="st1" x1="49.3" y1="26.6" x2="52.7" y2="26.6"/>
		<polyline class="st0" points="71.7,22.5 76.2,13.5 77.9,10.1 78,10 		"/>
		<path class="st0" d="M70.6,23.2c0.5,0,0.9-0.3,1.1-0.7"/>
		<line class="st1" x1="79.5" y1="7" x2="80.2" y2="5.5"/>
		<line class="st1" x1="78" y1="7" x2="78.4" y2="6.3"/>
		<line class="st1" x1="60.2" y1="26.6" x2="73.1" y2="26.6"/>
		<line class="st1" x1="64.7" y1="23.2" x2="70.6" y2="23.2"/>
		<line class="st1" x1="74.2" y1="25.9" x2="78.2" y2="18"/>
		<path class="st0" d="M73.1,26.7c0.5,0,0.9-0.3,1.1-0.7"/>
		<line class="st1" x1="84.8" y1="4.8" x2="80" y2="14.4"/>
		<path class="st0" d="M80,14.4c0,0,0,0.1,0,0.2H80"/>
		<line class="st1" x1="81.4" y1="4.8" x2="84.8" y2="4.8"/>
		<path class="st0" d="M81.4,4.8c-0.5,0-0.9,0.3-1.1,0.7"/>
		<line class="st1" x1="93.6" y1="4" x2="96.9" y2="4"/>
		<path class="st0" d="M93.6,4c-0.5,0-0.9,0.3-1.1,0.7"/>
		<line class="st1" x1="85.5" y1="8.5" x2="90.5" y2="8.5"/>
		<line class="st1" x1="94.7" y1="8.5" x2="99" y2="8.5"/>
		<line class="st1" x1="94.1" y1="13.1" x2="82.3" y2="13.1"/>
		<line class="st1" x1="90.5" y1="8.5" x2="89.8" y2="10"/>
		<line class="st1" x1="94.7" y1="8.5" x2="94" y2="10"/>
		<line class="st1" x1="89.8" y1="10" x2="84.6" y2="10"/>
		<line class="st1" x1="94" y1="10" x2="102.4" y2="10"/>
		<line class="st1" x1="83.5" y1="10.7" x2="82.3" y2="13.1"/>
		<path class="st0" d="M84.6,10c-0.5,0-0.9,0.3-1.1,0.7"/>
		<line class="st1" x1="98.4" y1="13.1" x2="100.1" y2="13.1"/>
		<path class="st0" d="M100.1,13.1c0.5,0,0.9-0.3,1.1-0.7"/>
		<line class="st1" x1="102.4" y1="10" x2="101.2" y2="12.4"/>
		<line class="st1" x1="87.7" y1="5.5" x2="92" y2="5.5"/>
		<path class="st0" d="M87.7,5.5c-0.5,0-0.9,0.3-1.1,0.7"/>
		<line class="st1" x1="96.2" y1="5.5" x2="101.3" y2="5.5"/>
		<line class="st1" x1="101.3" y1="5.5" x2="100.1" y2="7.8"/>
		<path class="st0" d="M99,8.5c0.5,0,0.9-0.3,1.1-0.7"/>
		<polyline class="st0" points="97,4 97,4 96.2,5.5 		"/>
		<line class="st1" x1="92.4" y1="4.7" x2="92" y2="5.5"/>
		<line class="st1" x1="90.8" y1="26.6" x2="78.9" y2="26.6"/>
		<line class="st1" x1="88.3" y1="23.2" x2="83.4" y2="23.2"/>
		<path class="st0" d="M90.8,26.7c0.5,0,0.9-0.3,1.1-0.7"/>
		<line class="st1" x1="93.4" y1="14.6" x2="80.1" y2="14.6"/>
		<line class="st1" x1="94.1" y1="13.1" x2="93.4" y2="14.6"/>
		<line class="st1" x1="91.9" y1="17.6" x2="89.4" y2="22.5"/>
		<path class="st0" d="M88.3,23.2c0.5,0,0.9-0.3,1.1-0.7"/>
		<line class="st1" x1="91.9" y1="17.6" x2="78.9" y2="17.6"/>
		<path class="st0" d="M78.9,17.6c-0.3,0-0.6,0.2-0.7,0.4"/>
		<line class="st1" x1="98.4" y1="13.1" x2="97.6" y2="14.6"/>
		<line class="st1" x1="96.1" y1="17.6" x2="91.9" y2="25.9"/>
		<line class="st1" x1="96.1" y1="17.6" x2="99.5" y2="17.6"/>
		<path class="st0" d="M99.5,17.6c0.5,0,0.9-0.3,1.1-0.7"/>
		<line class="st1" x1="101.8" y1="14.6" x2="100.7" y2="16.9"/>
		<line class="st1" x1="97.6" y1="14.6" x2="101.8" y2="14.6"/>
		<line class="st1" x1="80.7" y1="19.8" x2="78.9" y2="23.4"/>
		<path class="st0" d="M78.9,23.4c-0.1,0.2-0.1,0.4-0.1,0.6"/>
		<line class="st1" x1="81.8" y1="19.1" x2="84.5" y2="19.1"/>
		<path class="st0" d="M81.8,19.1c-0.5,0-0.9,0.3-1.1,0.7"/>
		<line class="st1" x1="83.8" y1="21.9" x2="83.3" y2="23.1"/>
		<path class="st0" d="M83.3,23.1c0,0,0,0.1,0,0.2h0.1"/>
		<line class="st1" x1="61" y1="4.8" x2="64.4" y2="4.8"/>
		<path class="st0" d="M61,4.8c-0.5,0-0.9,0.3-1.1,0.7"/>
		<line class="st1" x1="70.3" y1="4.8" x2="73.7" y2="4.8"/>
		<path class="st0" d="M70.3,4.8c-0.5,0-0.9,0.3-1.1,0.7"/>
		<line class="st1" x1="78.8" y1="23.9" x2="78.8" y2="26.5"/>
		<path class="st0" d="M78.8,26.5c0,0.1,0.1,0.1,0.1,0.1l0,0"/>
		<line class="st1" x1="60.1" y1="23.9" x2="60.1" y2="26.5"/>
		<path class="st0" d="M60.1,26.5c0,0.1,0.1,0.1,0.1,0.1"/>
		<path class="st0" d="M60.2,23.4c-0.1,0.2-0.1,0.4-0.1,0.6"/>
		<line class="st1" x1="86.6" y1="6.2" x2="85.5" y2="8.5"/>
		<line class="st1" x1="78" y1="7" x2="79.5" y2="7"/>
		<line class="st1" x1="63.9" y1="13.1" x2="60.3" y2="13.1"/>
		<line class="st1" x1="59.9" y1="16.4" x2="58.6" y2="16.4"/>
		<polyline class="st0" points="77.9,10.1 77.9,10.1 75.3,10.1 73.1,10.1 		"/>
		<line class="st1" x1="88.1" y1="19.1" x2="84.5" y2="19.1"/>
		<line class="st1" x1="63.9" y1="13.1" x2="65.4" y2="13.1"/>
		<line class="st1" x1="75.3" y1="13.1" x2="69.6" y2="13.1"/>
		<line class="st1" x1="83.8" y1="21.9" x2="84.2" y2="21.9"/>
		<line class="st1" x1="65.4" y1="13.1" x2="63.4" y2="15"/>
		<path class="st0" d="M59.9,16.4c1.3,0,2.6-0.5,3.6-1.5"/>
		<line class="st1" x1="69.8" y1="16.4" x2="67.9" y2="16.4"/>
		<line class="st1" x1="75.3" y1="13.1" x2="73.4" y2="15"/>
		<path class="st0" d="M69.8,16.4c1.3,0,2.6-0.5,3.6-1.5"/>
		<line class="st1" x1="88.1" y1="19.1" x2="86" y2="21.2"/>
		<path class="st0" d="M84.2,21.9c0.7,0,1.3-0.3,1.8-0.7"/>
		<path class="st0" d="M78.4,6.3c-2.1,0.7-3.9,2-5.2,3.8"/>
	</g>
</g>
<path class="st0" d="M21,2H6.9C3,2,0.5,4.5,0.5,8.4v14.1c0,3.9,2.5,6.4,6.4,6.4H21c3.9,0,6.4-2.5,6.4-6.4V8.4C27.4,4.5,24.9,2,21,2z
	 M11.1,3c3.3-1.5,7.2,0.1,8.6,3.4c1.4,3.2,0.1,6.9-3,8.5c0,0-0.1,0-0.1,0c-0.1,0-0.2-0.1-0.2-0.2l0,0v-2.7c0-0.3,0.1-0.6,0.3-0.9
	c1.1-1.5,0.8-3.7-0.7-4.8c-1.5-1.1-3.7-0.8-4.8,0.7C11,7,10.9,7.2,10.8,7.4c-0.5,1.2-0.3,2.6,0.4,3.7c0.1,0.2,0.2,0.4,0.2,0.7v2.8
	c0,0,0,0.1,0,0.1c-0.1,0.1-0.2,0.2-0.3,0.1C7.9,13.2,6.5,9.3,8.1,6C8.7,4.7,9.8,3.6,11.1,3L11.1,3z M15.7,11.2v10.5
	c0,0.9-0.6,1.6-1.4,1.8c-0.9,0.2-1.8-0.4-2-1.4c0-0.1,0-0.2,0-0.4V11.3c0-0.9,0.6-1.6,1.4-1.8c0.9-0.2,1.8,0.4,2,1.4
	C15.7,11,15.7,11.1,15.7,11.2L15.7,11.2z M26.9,16.2h-1.5l0,0v0.7c0.1,6.2-4.8,11.4-11,11.7c-6.3,0.2-11.5-4.7-11.7-11
	c0-0.1,0-0.3,0-0.4v-1l0,0H1.1l4.7-4.7v5.4c-0.1,4.4,3.4,8.1,7.8,8.4c4.5,0.2,8.3-3.2,8.6-7.7c0-0.1,0-0.3,0-0.4v-5.7L26.9,16.2
	L26.9,16.2z"/>
</svg>
