<svg xmlns="http://www.w3.org/2000/svg" viewBox="0 0 53.66 23.18"><defs><style>.cls-1{fill:#fff;}</style></defs><title>media_touzijie</title><g id="图层_2" data-name="图层 2"><g id="图层_1-2" data-name="图层 1"><path class="cls-1" d="M.31,3.68H2.63L2.47,0c1.06-.21,2,.3,3,.55V3.34l1.27-.73,1.9,1.31c.62-1-.31-2.32.76-3.22a16.57,16.57,0,0,1,2,.53,1.54,1.54,0,0,0,2-.51A2.23,2.23,0,0,1,13.8.43l2.43,1.18a9.59,9.59,0,0,0-.29,3.66c.72.42,1.42.13,2.08.25.58.62.58.62.36,1.66h-2.5l0,.19,1.34.83L17.11,9c-1.43,1.07-2,2.69-3.1,4.14,1.62.79,3.19,1.4,4.87,2.1-.83.79-1.7,1.4-2.59,2.12L12,14.67,6.79,17.06l-.14-.21c1.26-1.28,2.67-2.4,4-3.73l-2-4.4-.6-.26L8,7.93,7,8.06c.13-.71.72-1.08,1-1.63A4.75,4.75,0,0,0,8.69,4.5a12.53,12.53,0,0,0-3.16-.06V6.71l1.81-.23.09.23-2,1.39V22.48L2.53,21c0-1.83,0-3.68,0-5.54s0-3.68,0-5.55L.8,10.58C.5,9.7-.47,9.15.27,8.15l2.36-.62V4.43H.41L.33,3.66Zm11.15-1.8c-.08.62-.13,1.16-.23,1.7a7.33,7.33,0,0,1-.41,1.61,5.72,5.72,0,0,1-1,1.46,8.73,8.73,0,0,1-1.22,1l.07.17,4.46.15.7-.88-.52-.65c-.16-1.56.15-3.07-.18-4.53Zm2,6.82a8.27,8.27,0,0,0-4.06.09A19.31,19.31,0,0,0,11.85,12,14.38,14.38,0,0,0,13.42,8.71Z"/><path class="cls-1" d="M34.22,11.87c2.41-1.3,5.07-2.14,7-4.54L40,7.2,37.33,8.62,36.79,8V.65a3.7,3.7,0,0,1,1,.16,10,10,0,0,0,4.89.8c1.24,0,2.48,0,3.72,0,1,0,2,0,2.62-1l2.25,1a2.54,2.54,0,0,0-.53,2.1c0,1.3,0,2.59,0,4l-1.49.62-1-.87a3.77,3.77,0,0,0-3,.17,4.83,4.83,0,0,0,.9.47c1.37.36,2.75.73,4.14,1,1.06.22,2.14.31,3.38.48l-2,2.71-3.4-1.45c0,.44-.12.78-.12,1.13,0,3.1,0,6.2,0,9.3,0,.34,0,.67,0,1.19L45,21V9.36l-1.31-.87-1.16.94c-.54,1.63-1,3.13-1.52,4.63a5,5,0,0,1-1.83,2.51c-.94.69-1.91,1.34-2.94,2.06L36,18a8.34,8.34,0,0,0,2.31-3.44,8.05,8.05,0,0,0,.36-3.5C37.11,11.17,35.74,11.87,34.22,11.87ZM45.36,2.11V3.94h3V2.1A10.28,10.28,0,0,0,45.36,2.11ZM42.48,3.94V2.1a5.26,5.26,0,0,0-3,.2,2.26,2.26,0,0,0,.06,1.64Zm5.8,2.72a1.68,1.68,0,0,0-.1-1.81H45.37V6.65ZM39.5,4.83V6.64h3V4.83Z"/><path class="cls-1" d="M32.47,1.09c1.11.75,2.07,1.35,3.15,2.14L31.49,4.87v-2l-1.66-.12.52.48-.22.94c1.67,1.82,4,2.36,6.33,3-1,.59-1.56,1.5-2.57,2a26.73,26.73,0,0,1-4.12-4c-1.92,1.54-3.64,3.4-6.5,3.23a1.42,1.42,0,0,0,1.26.54c1.36,0,2.73,0,4.09,0a2.1,2.1,0,0,0,1-.42,3.41,3.41,0,0,0,.58-.66l2.61,1.31c-.6,1.5-.14,3-.38,4.53l-.81.28,1.48.59.81.93-.4,2c-2.48-.12-4-1.92-5.92-3.16-1.36.58-2.71,1.19-4.08,1.75a11.11,11.11,0,0,1-4,1.26l-.08-.2c.19-.13.37-.27.57-.38,1.19-.67,2.35-1.39,3.57-2a3.38,3.38,0,0,0,1.9-3.33c0-.46,0-.92,0-1.54l3.06.6-.71,3,1.79.14a24.63,24.63,0,0,0,.06-4.15,45.45,45.45,0,0,0-5.3-.06,32.28,32.28,0,0,0-.19,4.46l-2.06.47-.9-.7V9.11l-.88-.35c-.39-1.1-.2-2.53-1.63-3.22l.17-.16a2.86,2.86,0,0,1,.59,0,2.83,2.83,0,0,0,2.65-1c.74-.83,1.55-1.61,2.3-2.43a4.67,4.67,0,0,0,.45-.7l.26.21c-.11.2-.21.4-.34.59-.64.95-1.3,1.89-1.94,2.84a3.72,3.72,0,0,0-.64,3.33c2.3-.09,5.6-2.29,5.46-5.43C27,3.39,26.38,4,25.74,4.55s-1.3,1-2,1.5l-.19-.17c.33-.59.71-1.16,1-1.77a12.33,12.33,0,0,0,.69-1.91c.18-.68.28-1.39.43-2.2a15.77,15.77,0,0,1,3.54.85C28.85,1.47,28,1.5,28,2.38c1.07,0,2.11,0,3.15,0A1.13,1.13,0,0,0,31.72,2C32,1.72,32.2,1.42,32.47,1.09Z"/><path class="cls-1" d="M10.42,22.12H9.33V18.8c1.13,0,2.25-.29,3.33.37v1c-.49.89-1.46.44-2.13.86ZM11.59,20c-.25-.69-.58-.72-1.09-.5l.08.87Z"/><path class="cls-1" d="M14.52,19.47c.59,1,1.53.29,2.14.85-.53.66-1.38.07-2,.54l0,.62,1,.07,1.16.05c-.19.25-.28.48-.38.48-1,0-2,0-3,0V18.82a19.78,19.78,0,0,1,3.27,0c-.14.73-.63.48-1,.53S15.09,19.42,14.52,19.47Z"/><path class="cls-1" d="M19.49,19.72l.23-.9h.8V22c-.2,0-.4.09-.6.11a6.71,6.71,0,0,0-.87.06,1.34,1.34,0,0,1-1.36-.34,1.48,1.48,0,0,1-.13-1.57,1.53,1.53,0,0,1,.8-.52A4.73,4.73,0,0,1,19.49,19.72Zm-.91,1.7c.42.25.76.2.93-.29s-.06-.63-.72-.8A.75.75,0,0,0,18.58,21.42Z"/><path class="cls-1" d="M23.49,20.49c-.74-.77-1.42.33-2-.29.06-.34.35-.48.7-.48.77,0,1.61-.28,2.27.45l.08,1.92c-.76,0-1.51.11-2.27.13-.52,0-.6-.06-1-.63.06-.61.56-.65,1-.76Zm-1.14,1.16c.87.12.93.08.91-.62C22.91,21.13,22.45,21,22.35,21.65Z"/><path class="cls-1" d="M28.68,22.89l1.09-.48a25.51,25.51,0,0,0-1.13-2.61h1l.7,1.61L31,19.8h.95c-.44,1-.8,1.89-1.25,2.76C30.33,23.25,29.6,23.37,28.68,22.89Z"/><path class="cls-1" d="M40,20.34l-.85.16L38.93,22l-.82,0V19.74l1.28.1A1.64,1.64,0,0,1,41,20l.22,2.15-1-.06Z"/><path class="cls-1" d="M19,.83,22.44,2,21.81,3.8,19.37,2.38Z"/><path class="cls-1" d="M35.64,20.11l-.7.95.79.72.83-.46.78.12c-.66.9-1.41,1-2.85.5a1.25,1.25,0,0,1-.34-1.5,1.35,1.35,0,0,1,1.38-.74,1.81,1.81,0,0,1,1.72.61l-.69.23Z"/><path class="cls-1" d="M27.13,18.83H28V22l-.82.11A22,22,0,0,1,27.13,18.83Z"/><path class="cls-1" d="M26.21,22.16l-.92-.1V19.78l.92-.05Z"/><path class="cls-1" d="M33.32,22.08l-.91.07-.06-.71h1Z"/><path class="cls-1" d="M25.28,18.94c.33-.24.66-.32,1.13.22H25.31Z"/><polygon class="cls-1" points="0.33 3.66 0.29 3.66 0.31 3.68 0.33 3.66"/></g></g></svg>