<svg xmlns="http://www.w3.org/2000/svg" viewBox="0 0 43.31 40.47"><defs><style>.cls-1{fill:#fff;}</style></defs><title>media_CT</title><g id="图层_2" data-name="图层 2"><g id="图层_1-2" data-name="图层 1"><path class="cls-1" d="M23.21,29.89a14.79,14.79,0,0,1-9.77,3.28c-6.68,0-12.11-3.57-12.11-8V23.9C3.49,27,8.1,29.19,13.43,29.19a18.24,18.24,0,0,0,6.42-1.13l.4-1.58a16.74,16.74,0,0,1-6.81,1.39c-6.68,0-12.11-3.57-12.11-8V18.59c2.17,3.12,6.77,5.29,12.11,5.29a17.61,17.61,0,0,0,7.91-1.8l.43-1.74a15.87,15.87,0,0,1-8.35,2.21c-6.68,0-12.11-3.57-12.11-8V13.29c2.17,3.12,6.77,5.29,12.11,5.29a16.86,16.86,0,0,0,9.47-2.71l.52-2.09c-2.18,2.09-5.85,3.47-10,3.47-6.68,0-12.11-3.57-12.11-8s5.43-8,12.11-8c4.68,0,8.73,1.75,10.75,4.31h1.6C23.73,2.33,19,0,13.43,0,6,0,0,4.17,0,9.29c0,.11,0,.22,0,.33H0V25.54H0c.26,5,6.16,9,13.41,9,5.64,0,10.47-2.42,12.46-5.83Z"/><path class="cls-1" d="M22.77,40.47l2.49-10.78L17.93,33,22.7,13.93H14.1l1.95-9H43.31L41,14.26H32.28l-2.16,5L40,15.08Zm4.39-13.1-1.49,6.47L36.33,18.09,27.6,21.83l3.81-8.89H40L41.61,6.3H17.12l-1.37,6.3H24.4L19.88,30.67Z"/></g></g></svg>