<svg xmlns="http://www.w3.org/2000/svg" viewBox="0 0 44.4 24.08"><defs><style>.cls-1{fill:#fff;}</style></defs><title>y-o</title><g id="图层_2" data-name="图层 2"><g id="图层_1-2" data-name="图层 1"><path class="cls-1" d="M18.7,11.45a.66.66,0,0,0-.66.66,19.73,19.73,0,0,1-.34,2.45A2.7,2.7,0,0,1,16.93,16a4.3,4.3,0,0,1-2.72.64H10.8a19.67,19.67,0,0,1-3.36-.2,1.49,1.49,0,0,1-1.24-1.56,3.29,3.29,0,0,1,.52-1.69c.62-.74,2.89-3,6.74-6.84a32.62,32.62,0,0,0,3.29-3.18A3.19,3.19,0,0,0,17.39,2c0-.48-.16-1.13-1.58-1.13H6.51a.7.7,0,0,0-.67.62A.6.6,0,0,0,6.49,2h8.75a.19.19,0,0,1,.19.19c0,.16-.11.42-1.37,1.71-5,4.94-7.94,7.9-8.61,8.79a3.76,3.76,0,0,0-.64,2.13,2.49,2.49,0,0,0,1.75,2.71,16.06,16.06,0,0,0,3.57.25h3.05a18.68,18.68,0,0,0,3.36-.25,2.43,2.43,0,0,0,1.88-1.11,6.43,6.43,0,0,0,.78-2.28c.1-.73.17-1.43.24-2.06C19.44,11.81,19.35,11.47,18.7,11.45Z"/><path class="cls-1" d="M32.7,16.27H28.51a3.12,3.12,0,0,1-3.12-3.12V5.1A3.12,3.12,0,0,1,28.51,2H32.7A.69.69,0,0,0,32.7.6H28.51A4.5,4.5,0,0,0,24,5.1v8.05a4.5,4.5,0,0,0,4.5,4.5H32.7a.69.69,0,0,0,0-1.38Z"/><path class="cls-1" d="M36.66,3.53v-1H41.1A1.31,1.31,0,0,1,42.41,3.8v.57a1.89,1.89,0,0,1-.65,1.43.69.69,0,1,0,.9,1,3.26,3.26,0,0,0,1.13-2.47V3.8A2.69,2.69,0,0,0,41.1,1.11H36.66V.88a.77.77,0,1,0-1.53,0V3.53a3.24,3.24,0,0,1-.77,1.76C35.89,5.29,36.66,4.41,36.66,3.53Z"/><path class="cls-1" d="M33.27,4.83a.69.69,0,0,0-.7-1.19A6.33,6.33,0,0,0,30.12,6.3a6.33,6.33,0,0,0-2.41-2.57A.69.69,0,0,0,27,4.92a4.92,4.92,0,0,1,0,8.5.69.69,0,0,0,.7,1.19,6.33,6.33,0,0,0,2.45-2.66,6.33,6.33,0,0,0,2.42,2.57.69.69,0,1,0,.7-1.19,4.92,4.92,0,0,1,0-8.5Z"/><path class="cls-1" d="M43.49,16.4A7,7,0,0,1,40,10.52V4.25a.7.7,0,0,0-1.41,0v6.47a7,7,0,0,1-3.45,5.8.69.69,0,0,0,.7,1.19,8.44,8.44,0,0,0,3.49-4,8.43,8.43,0,0,0,3.44,3.88.69.69,0,1,0,.7-1.19Z"/><path class="cls-1" d="M4.21.16l0,0a.69.69,0,0,0-.88.47A8.85,8.85,0,0,1,.41,4.86,1.24,1.24,0,0,0,0,5.79C0,6.34.07,6.9.07,6.9A23.87,23.87,0,0,0,2.23,4.75V17.39a.7.7,0,0,0,.67.76.66.66,0,0,0,.67-.76V3.06a10,10,0,0,0,1.08-2A.7.7,0,0,0,4.21.16Z"/><path class="cls-1" d="M3,23.78c0,.16-.12.24-.36.24s-.35-.08-.35-.23v-4c0-.16.12-.23.35-.23a.54.54,0,0,1,.27.05.19.19,0,0,1,.09.18Z"/><path class="cls-1" d="M6.55,23.77a.23.23,0,0,1-.08.19.44.44,0,0,1-.27.07A.42.42,0,0,1,5.91,24a.23.23,0,0,1-.08-.18V22L4.16,20a.28.28,0,0,1-.08-.21.19.19,0,0,1,.13-.15.58.58,0,0,1,.25,0,.32.32,0,0,1,.24.13L6.2,21.56l1.45-1.81a.47.47,0,0,1,.14-.12l.15-.05h.14l.11,0c.08,0,.13.09.13.15a.35.35,0,0,1-.1.21L6.55,22Z"/><path class="cls-1" d="M9.91,23.78c0,.16-.12.24-.36.24s-.35-.08-.35-.23v-4c0-.16.12-.23.35-.23a.54.54,0,0,1,.27.05.19.19,0,0,1,.09.18Z"/><path class="cls-1" d="M13.93,19.52a3.59,3.59,0,0,1,1.2.18,2.46,2.46,0,0,1,.85.49,2,2,0,0,1,.51.73,2.26,2.26,0,0,1,.17.88,2.3,2.3,0,0,1-.17.88,2,2,0,0,1-.51.73,2.46,2.46,0,0,1-.85.5,4.08,4.08,0,0,1-2.41,0,2.47,2.47,0,0,1-.86-.5,2,2,0,0,1-.51-.73,2.28,2.28,0,0,1-.17-.88,2.38,2.38,0,0,1,.16-.88,1.94,1.94,0,0,1,.5-.73,2.46,2.46,0,0,1,.86-.49A3.66,3.66,0,0,1,13.93,19.52Zm0,4.11a2.73,2.73,0,0,0,.89-.13,1.74,1.74,0,0,0,.64-.37,1.52,1.52,0,0,0,.38-.57,2.05,2.05,0,0,0,.13-.74,2.07,2.07,0,0,0-.12-.7,1.61,1.61,0,0,0-.37-.59,1.81,1.81,0,0,0-.64-.41,2.78,2.78,0,0,0-1.83,0,1.82,1.82,0,0,0-.64.41,1.59,1.59,0,0,0-.37.59,2,2,0,0,0-.12.69,2,2,0,0,0,.12.68,1.67,1.67,0,0,0,.36.59,1.75,1.75,0,0,0,.63.41A2.47,2.47,0,0,0,13.93,23.63Z"/><path class="cls-1" d="M17.72,19.83a.22.22,0,0,1,.09-.18.43.43,0,0,1,.27-.07.45.45,0,0,1,.27.07.21.21,0,0,1,.09.18v2.32a2.53,2.53,0,0,0,.06.59,1,1,0,0,0,.25.46,1.23,1.23,0,0,0,.51.29,2.89,2.89,0,0,0,.85.1,2.09,2.09,0,0,0,1.25-.3,1,1,0,0,0,.4-.86V19.83a.22.22,0,0,1,.08-.18.56.56,0,0,1,.54,0,.22.22,0,0,1,.09.18v2.77a1.07,1.07,0,0,1-.18.61,1.53,1.53,0,0,1-.5.46A2.61,2.61,0,0,1,21,24a4.37,4.37,0,0,1-1.87,0,2.67,2.67,0,0,1-.76-.29,1.56,1.56,0,0,1-.51-.46,1.05,1.05,0,0,1-.19-.61Z"/><path class="cls-1" d="M28.75,24.08a4.64,4.64,0,0,1-1.25-.16,2.94,2.94,0,0,1-1-.45,2,2,0,0,1-.84-1.68,1.9,1.9,0,0,1,.21-.88,2.29,2.29,0,0,1,.59-.72,2.85,2.85,0,0,1,.9-.49,3.54,3.54,0,0,1,1.15-.18,3.83,3.83,0,0,1,.63,0,3.67,3.67,0,0,1,.55.13,2.72,2.72,0,0,1,.44.19,1.61,1.61,0,0,1,.31.21.27.27,0,0,1,.07.21.17.17,0,0,1-.08.08.41.41,0,0,1-.16,0,.47.47,0,0,1-.27-.05l-.38-.17a4.2,4.2,0,0,0-.5-.18,2.48,2.48,0,0,0-1.52.08,2.19,2.19,0,0,0-.66.42,1.82,1.82,0,0,0-.42.59,1.62,1.62,0,0,0-.15.66,1.73,1.73,0,0,0,.16.74,1.69,1.69,0,0,0,.46.59,2.13,2.13,0,0,0,.74.38,3.32,3.32,0,0,0,1,.13,2.51,2.51,0,0,0,.74-.11,2.7,2.7,0,0,0,.57-.26.59.59,0,0,1,.35-.09.37.37,0,0,1,.2.09.16.16,0,0,1,.05.14s-.06.11-.16.18a2,2,0,0,1-.41.22,3.63,3.63,0,0,1-.6.19A3.3,3.3,0,0,1,28.75,24.08Z"/><path class="cls-1" d="M34.22,19.52a3.59,3.59,0,0,1,1.2.18,2.46,2.46,0,0,1,.85.49,2,2,0,0,1,.51.73,2.26,2.26,0,0,1,.17.88,2.3,2.3,0,0,1-.17.88,2,2,0,0,1-.51.73,2.46,2.46,0,0,1-.85.5,4.08,4.08,0,0,1-2.41,0,2.47,2.47,0,0,1-.86-.5,2,2,0,0,1-.51-.73,2.28,2.28,0,0,1-.17-.88,2.38,2.38,0,0,1,.16-.88,1.94,1.94,0,0,1,.5-.73A2.46,2.46,0,0,1,33,19.7,3.66,3.66,0,0,1,34.22,19.52Zm0,4.11a2.73,2.73,0,0,0,.89-.13,1.74,1.74,0,0,0,.64-.37,1.52,1.52,0,0,0,.38-.57,2.05,2.05,0,0,0,.13-.74,2.07,2.07,0,0,0-.12-.7,1.61,1.61,0,0,0-.37-.59,1.81,1.81,0,0,0-.64-.41,2.78,2.78,0,0,0-1.83,0,1.82,1.82,0,0,0-.64.41,1.59,1.59,0,0,0-.37.59,2,2,0,0,0-.12.69,2,2,0,0,0,.12.68,1.67,1.67,0,0,0,.36.59,1.75,1.75,0,0,0,.63.41A2.47,2.47,0,0,0,34.22,23.63Z"/><path class="cls-1" d="M44.39,23.66a.43.43,0,0,1,0,.24c0,.07-.13.11-.3.12a.35.35,0,0,1-.24-.07.43.43,0,0,1-.11-.22l-.53-2.51-.07-.3a2.37,2.37,0,0,0-.09-.31.34.34,0,0,0-.11-.17s-.08,0-.12.11l-1.35,3.23a.38.38,0,0,1-.11.17.34.34,0,0,1-.21.05.38.38,0,0,1-.22,0,.42.42,0,0,1-.12-.18l-.7-1.61q-.35-.8-.68-1.61c0-.1-.09-.15-.13-.15s-.08.05-.1.15l-.67,3.15a.43.43,0,0,1-.1.22.4.4,0,0,1-.29.08q-.35,0-.26-.31L38.69,20a.42.42,0,0,1,.18-.28.64.64,0,0,1,.37-.09.78.78,0,0,1,.38.08.58.58,0,0,1,.24.29l1.29,3.16,1.26-3.16a.54.54,0,0,1,.23-.28.76.76,0,0,1,.37-.08.67.67,0,0,1,.37.09.44.44,0,0,1,.2.29Z"/><circle class="cls-1" cx="24.21" cy="21.67" r="0.49"/></g></g></svg>