<svg xmlns="http://www.w3.org/2000/svg" viewBox="0 0 50.68 12.49"><defs><style>.cls-1{fill:#fff;}</style></defs><title>media_weiyang</title><g id="图层_2" data-name="图层 2"><g id="图层_1-2" data-name="图层 1"><path class="cls-1" d="M6.12,9.86V6H.25L0,4.7H6.11V2.88H.22L0,1.6H6.09L6.28.19l1.4.1L8.15,1.6h5.77l.2,1.15H8V4.65h5.89l.2,1.22H8v6.63A9.5,9.5,0,0,1,6.59,12c-1.51-.8-3-1.63-4.67-2.55L1.79,12H.19V7C2.39,7.58,4,9.11,6.12,9.86Z"/><path class="cls-1" d="M14,7.16V12H12.5c-.54-1.63-.19-3.23-.26-4.88Z"/><path class="cls-1" d="M29.73,7.17h1.62v5L29.73,12Z"/><path class="cls-1" d="M49.6,4.3V.7H35.81V4.25l-1,.43.07,1,.93.45V12l1.74.08V5.76L39.95,7.5l1.42-1.23,1.5,1.29L44.72,6h2.82v6.17l2.14-.23V6.1l1-.37V4.59Zm-2.12.13H44.17L43,5.44,41.4,4.09,39.88,5.38,37.6,4.19V1.85h9.88Z"/><path class="cls-1" d="M32.84,5.36l-1-.37V1.3a10.07,10.07,0,0,0-1.49-.24c-2,0-4.08,0-6.12,0A2.38,2.38,0,0,1,23.88,1l-.51-1L21.62.94l.05.25H17.94V5l-1.13.39.34,1h4.08l-3.64,5.24,1.29.79c1.74-1.91,2.88-4.14,4.5-6.12h9.5Zm-11-.22h-2.1V2.43h2.1Zm7.72,0H23.75V2.44h5.79Z"/></g></g></svg>