<svg xmlns="http://www.w3.org/2000/svg" viewBox="0 0 131.64 39.5"><defs><style>.cls-1{font-size:21.94px;font-family:FZZZHUNHJW--GB1-0, FZZhengHeiS-M-GB;}.cls-1,.cls-2{fill:#fff;}</style></defs><title>media_tuoniao</title><g id="图层_2" data-name="图层 2"><g id="图层_1-2" data-name="图层 1"><text class="cls-1" transform="translate(0 32.47)">鸵鸟创投媒体</text><path class="cls-2" d="M100,8.11q0,1,1.4,1h1.46v-2h-1.33Q99.92,7.1,100,8.11Z"/><path class="cls-2" d="M87,5.16q-1.53.07-1.56,2T87,9.09q1.49,0,1.53-1.92T87,5.16Z"/><path class="cls-2" d="M107.44,5.16q-1.53.07-1.56,2t1.56,1.92q1.49,0,1.53-1.92T107.44,5.16Z"/><path class="cls-2" d="M67.39,0V11.83h64V0Zm9.76,3.3H74.71V9.57h-.94V3.3H71.33V2.69h5.81ZM83,9.64H80.51q-2,0-2-1.75V4.67h.94V7.79q-.07,1.33,1.4,1.3H82V4.67H83Zm3.94,0A2.34,2.34,0,0,1,84.45,7.2,2.41,2.41,0,0,1,87,4.54a2.34,2.34,0,0,1,2.44,2.6A2.3,2.3,0,0,1,86.92,9.67Zm8.23-.1h-.94V6.42q0-1.27-1.3-1.23H91.64V9.57H90.7v-5h2.37q2.08,0,2.08,1.79Zm2.58,0h-.94V4.67h.94Zm0-6h-.94V2.69h.94Zm5.83,6.11h-2.24q-2.08,0-2.11-1.49,0-1.69,2.34-1.69h1.27q0-1.37-1.27-1.33a1.44,1.44,0,0,0-1.53,1h-.84a2.19,2.19,0,0,1,2.37-1.62q2,0,2,1.75Zm3.85,0a2.34,2.34,0,0,1-2.47-2.47,2.41,2.41,0,0,1,2.53-2.66,2.34,2.34,0,0,1,2.44,2.6A2.3,2.3,0,0,1,107.41,9.67Zm4.72-.36h-1.07v-1h1.07Zm6.32-6h-3.93V5.8h3.77v.58h-3.77V9.57h-.91V2.72h4.84Zm8.85,6.27h-.94V6.26q0-1.07-1.17-1.07h-1.07V9.57h-.94V6.1q0-.91-1-.91h-1.23V9.57H120v-5h5.49q1.82,0,1.82,1.59Z"/></g></g></svg>