<svg id="图层_1" data-name="图层 1" xmlns="http://www.w3.org/2000/svg" viewBox="0 0 130.97 30.98"><defs><style>.cls-1{fill:#fff;}</style></defs><title>画板 1</title><path class="cls-1" d="M12.4,12.28c0-.18-.11-.24-.24-.18l-1.93,1a.52.52,0,0,0-.24.42v8.7c0,.18.11.24.24.18l1.93-.95A.52.52,0,0,0,12.4,21Zm3.35-1.68c0-.18-.11-.24-.24-.18l-1.93.95a.52.52,0,0,0-.24.42v8.72c0,.18.11.24.24.18l1.93-1a.52.52,0,0,0,.24-.42ZM19,9c0-.18-.11-.24-.24-.18l-1.93.95a.52.52,0,0,0-.24.42v8.7c0,.18.11.24.24.18l1.93-1a.52.52,0,0,0,.24-.42V9Z"/><path class="cls-1" d="M9.13,20.29a.65.65,0,0,0-.31-.55L.49,15.63c-.18-.09-.31,0-.31.22v1.81a.65.65,0,0,0,.31.55l8.33,4.13c.18.09.31,0,.31-.24Zm0-3.36a.65.65,0,0,0-.31-.55L.49,12.28c-.18-.09-.31,0-.31.22v1.81a.65.65,0,0,0,.31.55L8.82,19c.18.09.31,0,.31-.24V16.94Zm0-3.38A.65.65,0,0,0,8.82,13L.49,8.9c-.18-.09-.31,0-.31.22v1.81a.65.65,0,0,0,.31.55l8.33,4.13c.18.09.31,0,.31-.24Z"/><path class="cls-1" d="M24.54,11.59h3.34a3.83,3.83,0,0,1,.9.11,2.32,2.32,0,0,1,.79.35,1.81,1.81,0,0,1,.78,1.56A1.64,1.64,0,0,1,30,14.73a2.86,2.86,0,0,1-1.21.63l.2,0A2.12,2.12,0,0,1,30.2,16a1.75,1.75,0,0,1,.49,1.3,2.15,2.15,0,0,1-.26,1.1,2.09,2.09,0,0,1-.69.72,3,3,0,0,1-1,.39,5.3,5.3,0,0,1-1.12.12h-3.1ZM26,14.85h1.48a1.8,1.8,0,0,0,1.09-.28,1,1,0,0,0,.37-.8.82.82,0,0,0-.39-.77,2.47,2.47,0,0,0-1.21-.23H26Zm0,3.55h1.49a4.76,4.76,0,0,0,.59,0,1.94,1.94,0,0,0,.59-.16,1.15,1.15,0,0,0,.44-.36,1,1,0,0,0,.18-.63.93.93,0,0,0-.43-.88,2.7,2.7,0,0,0-1.31-.25H26V18.4Zm6.1-6.81h1.43v8H32.08Zm4.83,1.24H34.45V11.59h6.37v1.24H38.35V19.6H36.91Zm10.31.63a1.83,1.83,0,0,0-.83-.63,2.79,2.79,0,0,0-2.14,0,2.65,2.65,0,0,0-.88.62,2.76,2.76,0,0,0-.57.93,3.28,3.28,0,0,0-.2,1.15,3.55,3.55,0,0,0,.19,1.2,2.7,2.7,0,0,0,.55.93,2.48,2.48,0,0,0,.86.6,2.83,2.83,0,0,0,1.13.22,2.51,2.51,0,0,0,1.15-.25,2.25,2.25,0,0,0,.81-.67l1.15.8a3.68,3.68,0,0,1-1.31,1,4.17,4.17,0,0,1-1.81.37,4.71,4.71,0,0,1-1.73-.31,3.91,3.91,0,0,1-2.25-2.21A4.47,4.47,0,0,1,41,15.58a4.33,4.33,0,0,1,.34-1.74,3.86,3.86,0,0,1,.92-1.32,4.1,4.1,0,0,1,1.38-.84,5,5,0,0,1,1.73-.29,4.66,4.66,0,0,1,.81.07,4.17,4.17,0,0,1,.81.23,4,4,0,0,1,.73.38,2.35,2.35,0,0,1,.58.54l-1.09.86Zm1.58,2.1a4.46,4.46,0,0,1,.32-1.74,3.8,3.8,0,0,1,.9-1.32,4,4,0,0,1,1.36-.84,4.93,4.93,0,0,1,1.72-.29,5,5,0,0,1,1.74.29,4,4,0,0,1,1.38.84,3.78,3.78,0,0,1,.9,1.32,4.46,4.46,0,0,1,.32,1.74,4.39,4.39,0,0,1-.32,1.71,4,4,0,0,1-.9,1.33,4.12,4.12,0,0,1-1.38.87,4.75,4.75,0,0,1-1.74.31,4.68,4.68,0,0,1-1.72-.31A4.06,4.06,0,0,1,50,18.62a4,4,0,0,1-.9-1.33A4.39,4.39,0,0,1,48.8,15.58Zm1.56,0a3.37,3.37,0,0,0,.2,1.18,2.74,2.74,0,0,0,.57.93,2.59,2.59,0,0,0,.88.62,2.76,2.76,0,0,0,1.12.22,2.81,2.81,0,0,0,1.13-.22,2.58,2.58,0,0,0,.88-.62,2.76,2.76,0,0,0,.57-.93,3.38,3.38,0,0,0,.2-1.18,3.27,3.27,0,0,0-.2-1.15,2.81,2.81,0,0,0-.56-.93,2.6,2.6,0,0,0-.88-.62,2.77,2.77,0,0,0-1.14-.23,2.74,2.74,0,0,0-1.13.23,2.62,2.62,0,0,0-.87.62,2.81,2.81,0,0,0-.56.93,3.27,3.27,0,0,0-.2,1.15Zm8.49-4h1.43v8H58.85Zm3.21,0H64l3.74,6h0v-6h1.43v8H67.33l-3.82-6.19h0V19.6H62.05Z"/><path class="cls-1" d="M76.11,17.75h0l2.38-6.15h1.75v8H79.13v-6.7h0l-2.67,6.7h-.72l-2.66-6.7h0v6.7H71.94v-8H73.7Zm6.44,1.86H81.29l3.49-8h1l3.46,8H88l-.82-2H83.35Zm1.21-3h3l-1.5-3.75-1.51,3.75Zm12.42-3.4a2.62,2.62,0,0,0-.93-.63A3.22,3.22,0,0,0,94,12.37a3.1,3.1,0,0,0-1.27.25,2.86,2.86,0,0,0-1,.7,3.14,3.14,0,0,0-.61,1,3.53,3.53,0,0,0-.22,1.24,3.61,3.61,0,0,0,.22,1.25,3.06,3.06,0,0,0,.61,1,2.81,2.81,0,0,0,1,.68,3.26,3.26,0,0,0,1.3.25,5,5,0,0,0,1-.1,3.08,3.08,0,0,0,.83-.29V16.17H94.11v-1H97V19.1a5.85,5.85,0,0,1-1.39.52A7,7,0,0,1,94,19.8a4.7,4.7,0,0,1-1.73-.31A3.91,3.91,0,0,1,90,17.29a4.44,4.44,0,0,1-.32-1.7A4.4,4.4,0,0,1,90,13.87a3.87,3.87,0,0,1,.9-1.32,4.09,4.09,0,0,1,1.36-.85A4.67,4.67,0,0,1,94,11.39a4.92,4.92,0,0,1,1.72.28,3.67,3.67,0,0,1,1.26.76l-.79.81Zm3.11,6.36H98l3.49-8h1l3.46,8h-1.28l-.82-2h-3.82l-.81,2Zm1.21-3h3L102,12.89l-1.51,3.75Zm11.86-4.07-4.55,6h4.62v1h-6v-1l4.54-6h-4.45v-1h5.83v1Zm1.42-1h1.13v8h-1.13Zm8.76,6.4h0v-6.4h1.13v8h-1.42L118,13.06h0V19.6h-1.13v-8h1.47l4.21,6.4Zm4.23.61H131v1h-5.33v-8h5.16v1h-4V15h3.8v1h-3.8Z"/></svg>