<svg xmlns="http://www.w3.org/2000/svg" xmlns:xlink="http://www.w3.org/1999/xlink" viewBox="0 0 52.92 13.05"><defs><style>.cls-1{fill:none;}.cls-2{fill:#fff;}.cls-3{clip-path:url(#clip-path);}</style><clipPath id="clip-path"><rect class="cls-1" x="0.22" y="0.22" width="12.61" height="12.61" rx="2.08" ry="2.08"/></clipPath></defs><title>media_8btc_en</title><g id="图层_2" data-name="图层 2"><g id="图层_1-2" data-name="图层 1"><g id="字母部分"><path class="cls-2" d="M20.34,12.22a3.78,3.78,0,0,1-2.69-1.07A3.42,3.42,0,0,1,16.9,10a3.27,3.27,0,0,1-.27-1.29,3.42,3.42,0,0,1,.12-.88A2.91,2.91,0,0,1,17.14,7a3,3,0,0,1,.68-.72,3.13,3.13,0,0,1,1-.5,3.39,3.39,0,0,1-1.29-1.09,2.39,2.39,0,0,1-.42-1.35,2.54,2.54,0,0,1,.19-1,2.42,2.42,0,0,1,.58-.84,3,3,0,0,1,1-.6A3.51,3.51,0,0,1,20.15.71a3.79,3.79,0,0,1,1.3.21,3.32,3.32,0,0,1,1,.56,2.49,2.49,0,0,1,.65.81,2.16,2.16,0,0,1,.23,1,2.66,2.66,0,0,1-.42,1.37,3.1,3.1,0,0,1-1.26,1.14,3.24,3.24,0,0,1,1.72,1.16A3,3,0,0,1,24,8.72,3.42,3.42,0,0,1,23.73,10a3.52,3.52,0,0,1-1.85,1.94A3.64,3.64,0,0,1,20.34,12.22Zm0-1.28a1.1,1.1,0,0,0,.62-.19,1.76,1.76,0,0,0,.49-.49,2.68,2.68,0,0,0,.33-.68,2.54,2.54,0,0,0,.12-.78,2.13,2.13,0,0,0-.17-.87,2.86,2.86,0,0,0-.43-.7,3,3,0,0,0-.56-.52,3.5,3.5,0,0,0-.58-.33,2,2,0,0,0-.61.44,2.47,2.47,0,0,0-.42.62,3.29,3.29,0,0,0-.25.71,3.08,3.08,0,0,0-.08.68,2.64,2.64,0,0,0,.12.81,2.31,2.31,0,0,0,.33.67,1.77,1.77,0,0,0,.49.46A1.11,1.11,0,0,0,20.3,10.94Zm-.07-5.68a2.8,2.8,0,0,0,.88-1.07A2.84,2.84,0,0,0,21.41,3a2,2,0,0,0-.08-.55A1.54,1.54,0,0,0,21.12,2a1.16,1.16,0,0,0-.37-.33,1,1,0,0,0-.49-.13,1,1,0,0,0-.88.47,1.93,1.93,0,0,0-.33,1.13,2.54,2.54,0,0,0,.3,1.17A2.87,2.87,0,0,0,20.23,5.27Z"/><path class="cls-2" d="M29.89,2.15V5.52H30a1.29,1.29,0,0,0,.71-.2,1.84,1.84,0,0,0,.53-.52,2.59,2.59,0,0,0,.34-.72,2.73,2.73,0,0,0,.12-.81,1.89,1.89,0,0,0-.13-.69,1.68,1.68,0,0,0-.4-.6,2,2,0,0,0-.7-.43,2.91,2.91,0,0,0-1-.16,4,4,0,0,0-1.21.18,3.08,3.08,0,0,0-1,.56,2.82,2.82,0,0,0-.74.94,2.89,2.89,0,0,0-.28,1.31,3.52,3.52,0,0,0,.07.77,2.79,2.79,0,0,0,.15.49,1.19,1.19,0,0,0,.18.3,1,1,0,0,1,.14.2,2.28,2.28,0,0,1-1.45-.42,1.71,1.71,0,0,1-.53-1.42,2.65,2.65,0,0,1,.38-1.36,3.93,3.93,0,0,1,1-1.14A5.35,5.35,0,0,1,27.69,1,6,6,0,0,1,29.6.71,4.91,4.91,0,0,1,31.2,1a3.79,3.79,0,0,1,1.15.61,2.44,2.44,0,0,1,.69.85,2.26,2.26,0,0,1,.23,1A2.64,2.64,0,0,1,33,4.57a2.56,2.56,0,0,1-.84,1,3,3,0,0,1,1.13.38,2.55,2.55,0,0,1,.78.71,3,3,0,0,1,.44.94,4,4,0,0,1,.14,1.08,7.18,7.18,0,0,1-.11,1.23,4.15,4.15,0,0,1-.4,1.21,2.76,2.76,0,0,1-.78.93,2,2,0,0,1-1.23.37,3,3,0,0,1-1.34-.27,1,1,0,0,1-.53-1,2.78,2.78,0,0,1,.14-.78,2.7,2.7,0,0,0,.62.43,1.25,1.25,0,0,0,.53.12.68.68,0,0,0,.49-.19,1.46,1.46,0,0,0,.33-.5,2.83,2.83,0,0,0,.18-.69,5.52,5.52,0,0,0,.05-.76A5.15,5.15,0,0,0,32.5,8a2.51,2.51,0,0,0-.28-.82,1.71,1.71,0,0,0-1.63-.91H30.3l-.41,0v5.83H27.7V2.45Z"/><path class="cls-2" d="M43.23,2.69a6.86,6.86,0,0,1-1.1-.1q-.61-.1-1.26-.24v9.77H38.67V2.05h-.15a3.5,3.5,0,0,0-1.14.16,1.77,1.77,0,0,0-.73.46,1.63,1.63,0,0,0-.38.74,4.22,4.22,0,0,0-.11,1,3.85,3.85,0,0,0,.07.81,2.36,2.36,0,0,0,.16.49,1.19,1.19,0,0,0,.18.29l.15.17a2.27,2.27,0,0,1-1.5-.45,2,2,0,0,1-.54-1.59,3.66,3.66,0,0,1,.24-1.34,2.68,2.68,0,0,1,.78-1.08A3.86,3.86,0,0,1,37.11,1a7.37,7.37,0,0,1,2.1-.26,10.34,10.34,0,0,1,1.1.05l.93.12L42.1,1a7.21,7.21,0,0,0,.9.05A4.9,4.9,0,0,0,44.07,1a4.41,4.41,0,0,0,.72-.22,3.66,3.66,0,0,1,0,.53,1.38,1.38,0,0,1-.37,1A1.76,1.76,0,0,1,43.23,2.69Z"/><path class="cls-2" d="M52.92,9.54a3.51,3.51,0,0,1-.54,1.21,3.66,3.66,0,0,1-.9.89,3.89,3.89,0,0,1-1.17.55,5,5,0,0,1-1.36.18A3.66,3.66,0,0,1,45.9,11,6.71,6.71,0,0,1,44.81,6.8,12.7,12.7,0,0,1,45,4.69a6.66,6.66,0,0,1,.64-2,4.09,4.09,0,0,1,1.23-1.45A3.2,3.2,0,0,1,48.8.71a4.17,4.17,0,0,1,1.1.14,2.8,2.8,0,0,1,.94.44,2.17,2.17,0,0,1,.89,1.82,1.42,1.42,0,0,1-.18.75.69.69,0,0,1-.65.29,1.69,1.69,0,0,1-.43-.07,1.29,1.29,0,0,1-.53-.33.85.85,0,0,0,.32-.45,1.85,1.85,0,0,0,.12-.65,1.37,1.37,0,0,0-.29-.86.93.93,0,0,0-.78-.37,1.15,1.15,0,0,0-.9.44A3.55,3.55,0,0,0,47.78,3a8.37,8.37,0,0,0-.37,1.64,14.3,14.3,0,0,0-.12,1.88,9.21,9.21,0,0,0,.21,2.12A4.2,4.2,0,0,0,48.05,10a2,2,0,0,0,.83.73,2.5,2.5,0,0,0,1,.21,2.88,2.88,0,0,0,1.56-.43,3,3,0,0,0,1.07-1.16Z"/></g><g class="cls-3"><path class="cls-2" d="M0,.3V12.75a.3.3,0,0,0,.3.3H12.75a.3.3,0,0,0,.3-.3V.3a.3.3,0,0,0-.3-.3H.3A.3.3,0,0,0,0,.3ZM5.25.51A3.13,3.13,0,0,1,9.5,2,3.2,3.2,0,0,1,8,6.25l-.06,0a.11.11,0,0,1-.11-.11V4.82A.59.59,0,0,1,8,4.42a1.7,1.7,0,0,0-.3-2.37,1.68,1.68,0,0,0-2.56.62,1.76,1.76,0,0,0,.23,1.79.56.56,0,0,1,.11.34V6.17a.07.07,0,0,1,0,.06.12.12,0,0,1-.17.06A3.25,3.25,0,0,1,3.74,4.78,3.21,3.21,0,0,1,5.25.51ZM7.39,4.27V9.58a.91.91,0,0,1-.7.9.88.88,0,0,1-1-.86V4.3a.91.91,0,0,1,.7-.9A.88.88,0,0,1,7.39,4.27ZM.22,6.74,2.6,4.57h0V7.19a4,4,0,0,0,3.74,4,3.9,3.9,0,0,0,4.09-3.88V4.42l2.25,2.31s0,0,0,0H12a0,0,0,0,0,0,0v.32a5.4,5.4,0,0,1-5.25,5.34A5.34,5.34,0,0,1,1.09,7.2V6.76l0,0Z"/></g></g></g></svg>